<svg id="BACKGROUND" xmlns="http://www.w3.org/2000/svg" viewBox="0 0 626.45 524.45"><defs><clipPath id="clip-path"><path class="cls-1" d="M82.75 454.77a4.13 4.13 0 0 0-1.66-5.6l-39-21.11a4.16 4.16 0 0 0-5.61 1.67l-15.31 28.34a4.16 4.16 0 0 0 1.67 5.61l39 21.1a4.14 4.14 0 0 0 5.61-1.66Z"/></clipPath><clipPath id="clip-path-2"><path class="cls-1" d="M.74 124.48a5.63 5.63 0 0 1 4-6.83l50.54-13a5.63 5.63 0 0 1 6.83 4L90.52 219a5.63 5.63 0 0 1-4 6.83l-50.54 13a5.63 5.63 0 0 1-6.83-4Z"/></clipPath><clipPath id="clip-path-3"><path class="cls-1" d="M269.33 79.69a5.8 5.8 0 0 1 6.86-4.48l60.74 12.72a5.8 5.8 0 0 1 4.48 6.85l-9.78 46.71a5.8 5.8 0 0 1-6.86 4.48L264 133.26a5.81 5.81 0 0 1-4.48-6.86Z"/></clipPath><clipPath id="clip-path-4"><path class="cls-1" d="M86 50.45a5.85 5.85 0 0 1 4.36-7l71-16.57a5.85 5.85 0 0 1 7 4.36L184 98.29a5.84 5.84 0 0 1-4.36 7l-71 16.58a5.84 5.84 0 0 1-7-4.36Z"/></clipPath><clipPath id="clip-path-5"><path class="cls-1" d="M506.39 47a4.46 4.46 0 0 1 3.19-5.43l46.22-12a4.47 4.47 0 0 1 5.43 3.2l8.71 33.62a4.46 4.46 0 0 1-3.19 5.43l-46.22 12a4.47 4.47 0 0 1-5.43-3.2Z"/></clipPath><style>.cls-1{fill:none}.cls-2{fill:#8ee1ad}.cls-3{fill:#52b086}.cls-4{fill:#ea3458}.cls-6{fill:#00846c}.cls-7{fill:#070707}.cls-7,.cls-9{opacity:.1}.cls-8{fill:#ffb900}.cls-10{fill:#002f24}.cls-11{fill:#fc0c1f}.cls-12{fill:#51110e;opacity:.15}.cls-13{fill:#86221a}.cls-14{fill:#ff638c}.cls-16{fill:#ff9459}.cls-19{fill:#8c0b16}</style></defs><path class="cls-2" d="m130 455.7-2.45-4.98-5.5-.8 3.98-3.87-.94-5.48 4.91 2.59 4.92-2.59-.94 5.48 3.98 3.87-5.5.8-2.46 4.98zM140.81 404.99l-1.22-2.49-2.75-.4 1.98-1.94-.46-2.74 2.45 1.3 2.46-1.3-.47 2.74 1.99 1.94-2.75.4-1.23 2.49zM77.09 494.13l-1.23-2.49-2.75-.39 1.99-1.94-.47-2.74 2.46 1.29 2.46-1.29-.47 2.74 1.99 1.94-2.75.39-1.23 2.49zM181.75 327.78l-2.45-4.98-5.5-.8 3.98-3.87-.94-5.48 4.91 2.59 4.92-2.59-.94 5.48 3.98 3.87-5.5.8-2.46 4.98zM193.69 272.49l-1.23-2.49-2.75-.39 1.99-1.94-.47-2.74 2.46 1.29 2.46-1.29-.47 2.74 1.98 1.94-2.74.39-1.23 2.49zM242.68 214.76l-1.23-2.49-2.75-.4 1.99-1.94-.47-2.73 2.46 1.29 2.46-1.29-.47 2.73 1.99 1.94-2.75.4-1.23 2.49zM284.66 188.14l-2.46-4.98-5.5-.8 3.98-3.87-.94-5.48 4.92 2.59 4.91-2.59-.93 5.48 3.97 3.87-5.49.8-2.46 4.98zM419.18 168.53l-2.46-4.98-5.5-.8 3.98-3.88-.94-5.47 4.92 2.58 4.91-2.58-.94 5.47 3.98 3.88-5.5.8-2.45 4.98zM490.24 137.54l-1.23-2.49-2.74-.39 1.98-1.94-.46-2.74 2.45 1.29 2.46-1.29-.47 2.74 1.99 1.94-2.75.39-1.23 2.49zM542.36 115.99l-1.23-2.49-2.75-.4 1.99-1.94-.47-2.74 2.46 1.3 2.46-1.3-.47 2.74 1.99 1.94-2.75.4-1.23 2.49zM618.49 73.74l-2.46-4.98-5.49-.79 3.97-3.88-.93-5.48 4.91 2.59 4.92-2.59-.94 5.48 3.98 3.88-5.5.79-2.46 4.98z"/><path class="cls-3" d="M524.11 123.17h-7.38L522 118a.73.73 0 0 0-1-1l-5.22 5.22v-7.38a.73.73 0 0 0-1.45 0v7.38l-5.33-5.3a.73.73 0 0 0-1 1l5.22 5.22h-7.38a.73.73 0 0 0 0 1.45h7.38l-5.22 5.25a.73.73 0 0 0 1 1l5.22-5.22V133a.73.73 0 0 0 1.45 0v-7.38l5.22 5.22a.73.73 0 0 0 1-1l-5.22-5.22h7.38a.73.73 0 0 0 .06-1.45ZM608.24 50.52h-10.73l7.59-7.59a1.06 1.06 0 0 0-1.5-1.49L596 49V38.29a1.06 1.06 0 0 0-2.11 0V49l-7.59-7.59a1.06 1.06 0 0 0-1.5 1.49l7.59 7.59h-10.72a1.06 1.06 0 0 0 0 2.12h10.73l-7.59 7.59a1.06 1.06 0 0 0 1.5 1.49c2.53-2.53 5.06-5 7.59-7.59v10.77a1.06 1.06 0 0 0 2.11 0V54.13q3.79 3.81 7.59 7.59a1.06 1.06 0 0 0 1.5-1.49l-7.59-7.59h10.73a1.06 1.06 0 0 0 0-2.12ZM476.22 132.68h-10.74l7.59-7.59a1.06 1.06 0 0 0-1.49-1.5l-7.58 7.59v-10.73a1.06 1.06 0 0 0-2.12 0v10.73l-7.59-7.59a1.06 1.06 0 0 0-1.49 1.5l7.59 7.59h-10.75a1.06 1.06 0 0 0 0 2.11h10.74l-7.59 7.59a1.06 1.06 0 0 0 1.49 1.5l7.59-7.59V147a1.06 1.06 0 0 0 2.12 0v-10.71l7.59 7.59a1.06 1.06 0 0 0 1.49-1.5l-7.59-7.59h10.74a1.06 1.06 0 0 0 0-2.11ZM337 169.21h-7.38l5.22-5.22a.73.73 0 0 0-1-1l-5.22 5.21v-7.4a.73.73 0 0 0-1.45 0v7.38l-5.3-5.18a.73.73 0 0 0-1 1l5.22 5.22h-7.38a.73.73 0 0 0 0 1.46h7.38l-5.22 5.21a.73.73 0 0 0 1 1l5.22-5.22v7.38a.73.73 0 0 0 1.45 0v-7.38l5.22 5.22a.73.73 0 0 0 1-1l-5.22-5.21H337a.73.73 0 0 0 0-1.47ZM200.17 236h-10.73l7.58-7.59a1.06 1.06 0 0 0-1.49-1.5l-7.59 7.59v-10.77a1.06 1.06 0 0 0-2.12 0v10.73l-7.59-7.59a1.06 1.06 0 0 0-1.49 1.5l7.59 7.59h-10.74a1.06 1.06 0 0 0 0 2.12h10.74l-7.59 7.58a1.06 1.06 0 0 0 1.49 1.5q3.81-3.79 7.59-7.59v10.73a1.06 1.06 0 0 0 2.12 0v-10.73l7.59 7.59a1.06 1.06 0 0 0 1.49-1.5l-7.58-7.58h10.73a1.06 1.06 0 0 0 0-2.08ZM224.67 206.62h-5.92l4.18-4.19c.54-.53-.29-1.35-.82-.82l-4.19 4.18v-5.92a.58.58 0 0 0-1.16 0v5.92l-4.19-4.18c-.53-.53-1.36.29-.82.82l4.18 4.19H210a.58.58 0 0 0 0 1.16h5.92l-4.17 4.22a.58.58 0 0 0 .82.83l4.19-4.19v5.92a.58.58 0 0 0 1.16 0v-5.92l4.19 4.19a.58.58 0 0 0 .82-.83l-4.18-4.19h5.92a.58.58 0 0 0 0-1.19ZM134.67 382.71h-5.92l4.19-4.18a.59.59 0 0 0-.83-.83l-4.18 4.19V376a.59.59 0 0 0-1.17 0v5.92l-4.19-4.19c-.53-.53-1.35.3-.82.83l4.18 4.18H120a.59.59 0 0 0 0 1.17h5.92l-4.18 4.19a.58.58 0 0 0 .82.82l4.19-4.18v5.91a.59.59 0 0 0 1.17 0v-5.91l4.18 4.18a.58.58 0 0 0 .83-.82l-4.19-4.19h5.92a.59.59 0 0 0 .01-1.2ZM175.79 348.68h-10.73l7.59-7.59a1.06 1.06 0 0 0-1.5-1.49l-7.59 7.59v-10.74a1.06 1.06 0 0 0-2.12 0v10.74q-3.78-3.81-7.58-7.59a1.06 1.06 0 0 0-1.5 1.49l7.59 7.59h-10.74a1.06 1.06 0 0 0 0 2.12H160l-7.59 7.58a1.06 1.06 0 0 0 1.5 1.5l7.58-7.59V363a1.06 1.06 0 0 0 2.12 0v-10.71l7.59 7.59a1.06 1.06 0 0 0 1.5-1.49l-7.59-7.59h10.73a1.06 1.06 0 0 0-.05-2.12ZM110.22 477.64h-7.38l5.22-5.22a.73.73 0 0 0-1-1l-5.22 5.21v-7.37a.73.73 0 0 0-1.45 0v7.37l-5.22-5.21a.73.73 0 0 0-1 1l5.22 5.22H92a.73.73 0 0 0 0 1.46h7.38l-5.22 5.21a.73.73 0 0 0 1 1l5.22-5.21v7.37a.73.73 0 0 0 1.45 0v-7.37l5.22 5.21c.66.67 1.69-.36 1-1l-5.22-5.21h7.38a.73.73 0 0 0 .01-1.46ZM72.4 516h-5.92l4.19-4.18a.59.59 0 0 0-.83-.83l-4.18 4.19v-5.92a.59.59 0 0 0-1.17 0v5.92L60.3 511a.58.58 0 0 0-.82.83l4.18 4.17h-5.92a.59.59 0 0 0 0 1.17h5.92l-4.18 4.18a.58.58 0 0 0 .82.83l4.19-4.18v5.92a.59.59 0 0 0 1.17 0V518l4.18 4.19a.59.59 0 0 0 .83-.83l-4.19-4.18h5.92a.59.59 0 0 0 0-1.18Z"/><path class="cls-4" d="M82.75 454.77a4.13 4.13 0 0 0-1.66-5.6l-39-21.11a4.16 4.16 0 0 0-5.61 1.67l-15.31 28.34a4.16 4.16 0 0 0 1.67 5.61l39 21.1a4.14 4.14 0 0 0 5.61-1.66Z"/><g clip-path="url(#clip-path)"><path class="cls-6" transform="rotate(73.44 37.41 491.32)" d="M-37.05 487.72h148.96v7.16H-37.05z"/><path class="cls-6" transform="rotate(73.44 46.16 475.17)" d="M-28.31 471.58h148.96v7.16H-28.31z"/><path class="cls-6" transform="rotate(73.44 54.91 459.03)" d="M-19.56 455.43H129.4v7.16H-19.56z"/><path class="cls-6" transform="rotate(73.44 63.65 442.88)" d="M-10.82 439.29h148.96v7.16H-10.82z"/><path class="cls-6" transform="rotate(73.44 72.4 426.74)" d="M-2.07 423.14h148.96v7.16H-2.07z"/><path class="cls-6" transform="rotate(73.44 81.14 410.6)" d="M6.67 407h148.96v7.16H6.67z"/></g><path class="cls-7" d="m61.79 484.78 15.09-27.85a4.16 4.16 0 0 0-1.67-5.61l-38.96-21.1.27-.49a4.16 4.16 0 0 1 5.61-1.67l39 21.11a4.13 4.13 0 0 1 1.66 5.6L67.4 483.12a4.14 4.14 0 0 1-5.61 1.66Z"/><path class="cls-3" d="M72.53 481.17a4.52 4.52 0 0 0-1.82-6.11l-44.6-24.16a4.52 4.52 0 0 0-6.11 1.81l-2.65 4.9a4.52 4.52 0 0 0 1.82 6.11l44.6 24.16a4.52 4.52 0 0 0 6.11-1.82Z"/><path class="cls-7" d="m69.18 477.89-44.6-24.16a4.52 4.52 0 0 0-6.11 1.81l1.53-2.83a4.52 4.52 0 0 1 6.11-1.81l44.6 24.16a4.52 4.52 0 0 1 1.82 6.11L71 484a4.52 4.52 0 0 0-1.82-6.11Z"/><path class="cls-8" d="m40.82 475.45 7.11-13.14c3.78-7 6.68-12.32 10.45-19.29l2.62-4.76a.74.74 0 0 1 1.3.71L56 450.49l-11.33 20.9-2.57 4.76a.74.74 0 0 1-1.3-.7Z"/><path class="cls-8" d="M41.56 477.13a37.59 37.59 0 0 0-3.65 3 26 26 0 0 0-2.73 2.92 7.49 7.49 0 0 0-1.59 3 2 2 0 0 0 .84 2.16 2.39 2.39 0 0 0 2.57.35 5.13 5.13 0 0 0 1.8-2.49 19.52 19.52 0 0 0 1.09-3.76 36.6 36.6 0 0 0 .74-5.7c0-.79 1.27-.83 1.23 0a39.25 39.25 0 0 1-.67 5.52 22.32 22.32 0 0 1-1.19 4.24 7 7 0 0 1-2.08 3.05 3.7 3.7 0 0 1-5.57-2.23c-.47-2.57 1.91-5.11 3.54-6.79a38.44 38.44 0 0 1 5-4.33c.68-.46 1.31.59.67 1.06Z"/><path class="cls-8" d="M41.92 477.08a37.48 37.48 0 0 0-.15 4.74 25.29 25.29 0 0 0 .36 4 7.44 7.44 0 0 0 1.18 3.18 2 2 0 0 0 2.16.81 2.35 2.35 0 0 0 2-1.69 5.12 5.12 0 0 0-.66-3 19.58 19.58 0 0 0-2.08-3.31 37.2 37.2 0 0 0-3.78-4.34c-.56-.55.22-1.5.79-.94a39.33 39.33 0 0 1 3.69 4.16 22.79 22.79 0 0 1 2.4 3.73 6.91 6.91 0 0 1 .9 3.58 3.71 3.71 0 0 1-5.37 2.68c-2.23-1.36-2.55-4.83-2.72-7.16a38.64 38.64 0 0 1 .1-6.63c.05-.82 1.26-.6 1.18.19Z"/><path class="cls-8" d="M40.47 476.29a39.3 39.3 0 0 1-3.89 2.71 26.59 26.59 0 0 1-3.58 1.89 7.67 7.67 0 0 1-3.29.74 2 2 0 0 1-1.86-1.37 2.35 2.35 0 0 1 .34-2.57 5.12 5.12 0 0 1 2.87-1.09 19.66 19.66 0 0 1 3.91-.07 37.6 37.6 0 0 1 5.7.8c.77.17 1.14-1 .36-1.18a40.74 40.74 0 0 0-5.5-.81 22.61 22.61 0 0 0-4.43 0 7 7 0 0 0-3.49 1.2 3.7 3.7 0 0 0 .68 6c2.36 1.13 5.44-.49 7.48-1.62a37.92 37.92 0 0 0 5.5-3.72c.66-.51-.19-1.41-.8-.91Z"/><path class="cls-8" d="M42.21 476.45a37.6 37.6 0 0 0 3 3.71A25.22 25.22 0 0 0 48 483a7.45 7.45 0 0 0 3 1.59 2 2 0 0 0 2.18-.79 2.36 2.36 0 0 0 .4-2.56 5.11 5.11 0 0 0-2.46-1.85 19.24 19.24 0 0 0-3.73-1.17 36.5 36.5 0 0 0-5.69-.84c-.78-.06-.8-1.29 0-1.24a40.83 40.83 0 0 1 5.51.78 22.26 22.26 0 0 1 4.24 1.27 6.89 6.89 0 0 1 3 2.14 3.7 3.7 0 0 1-2.34 5.52c-2.57.42-5.07-2-6.71-3.67a39.11 39.11 0 0 1-4.24-5.11c-.47-.65.6-1.27 1.05-.62Z"/><path class="cls-8" d="M41 475.81a37.5 37.5 0 0 1-4.72-.45 24.85 24.85 0 0 1-3.91-.88 7.39 7.39 0 0 1-3-1.57 2 2 0 0 1-.53-2.25 2.38 2.38 0 0 1 1.93-1.73 5 5 0 0 1 2.89 1 19 19 0 0 1 3 2.49 36.24 36.24 0 0 1 3.82 4.3c.47.63 1.51 0 1-.66a41.75 41.75 0 0 0-3.66-4.19 23.58 23.58 0 0 0-3.38-2.86 6.82 6.82 0 0 0-3.44-1.35 3.7 3.7 0 0 0-3.35 5c1.06 2.39 4.46 3.16 6.74 3.62a38.46 38.46 0 0 0 6.6.76c.9.03.83-1.2.01-1.23Z"/><path class="cls-7" transform="rotate(28.44 49.33 461.32)" d="M23.04 459.35h52.58v3.86H23.04z"/><path class="cls-3" d="M140.55 285.1s5.41 29 27.59 32.39c0 0 .55-21.49-27.59-32.39Z"/><path class="cls-9" d="M141.35 288.38c-.57-2-.8-3.28-.8-3.28 28.14 10.92 27.59 32.39 27.59 32.39-.65-.1-1.29-.22-1.91-.36-.82-5.82-4.89-20.02-24.88-28.75Z"/><path class="cls-3" d="M133.08 282.67s-12.65 26.66 3.32 42.43c0 0 13.05-17.1-3.32-42.43Z"/><path class="cls-9" d="M131.81 285.8c.73-2 1.27-3.13 1.27-3.13 16.37 25.37 3.32 42.43 3.32 42.43-.47-.47-.91-.94-1.33-1.42 2.75-5.19 7.8-19.08-3.26-37.88Z"/><path class="cls-3" d="M137.69 277.85s22.92 18.58 42 6.77c.01 0-13.5-16.7-42-6.77Z"/><path class="cls-9" d="M140.42 279.82c-1.74-1.17-2.73-2-2.73-2 28.5-9.93 42 6.77 42 6.77l-1.69 1c-4.39-3.9-16.7-12.08-37.58-5.77Z"/><path class="cls-3" d="M113.09 265.06s-9.27 28 8.53 41.69c0 0 10.84-18.54-8.53-41.69Z"/><path class="cls-9" d="M112.21 268.32c.48-2 .88-3.26.88-3.26 19.37 23.15 8.53 41.69 8.53 41.69-.53-.4-1-.81-1.5-1.24 2.09-5.51 5.38-19.9-7.91-37.19Z"/><path class="cls-3" d="M116.31 261.18s25 15.61 42.52 1.53c0 0-15.46-14.9-42.52-1.53Z"/><path class="cls-9" d="M119.26 262.8c-1.87-.94-3-1.62-3-1.62 27.06-13.37 42.52 1.53 42.52 1.53-.51.42-1 .8-1.56 1.16-4.79-3.32-18.02-9.87-37.96-1.07Z"/><path class="cls-3" d="M93.86 250.73s-12.66 26.66 3.32 42.42c0 0 13.05-17.06-3.32-42.42Z"/><path class="cls-9" d="M92.59 253.85c.72-2 1.27-3.12 1.27-3.12 16.37 25.36 3.32 42.42 3.32 42.42-.47-.46-.91-.94-1.34-1.42 2.75-5.19 7.8-19.08-3.25-37.88Z"/><path class="cls-3" d="M97.91 247.7s25.62 14.64 42.55-.09c0 0-16.02-14.31-42.55.09Z"/><path class="cls-9" d="M100.93 249.2c-1.91-.87-3-1.5-3-1.5 26.53-14.4 42.55-.09 42.55-.09-.5.43-1 .83-1.51 1.22-4.97-3.13-18.46-9.22-38.04.37Z"/><path class="cls-3" d="M76.48 240.29s-8.86 25.93 7.52 38.78c0 0 10.25-17.07-7.52-38.78Z"/><path class="cls-9" d="M75.64 243.31c.46-1.89.84-3 .84-3C94.25 262 84 279.07 84 279.07q-.72-.57-1.38-1.17c2.01-5.08 5.2-18.42-6.98-34.59Z"/><path class="cls-3" d="M78.35 236.44s24.08 11.59 38.43-2.8c0 0-15.38-11.9-38.43 2.8Z"/><path class="cls-9" d="M81.17 237.61c-1.77-.66-2.82-1.17-2.82-1.17 23.05-14.7 38.43-2.8 38.43-2.8q-.63.63-1.29 1.2c-4.68-2.51-17.24-7.15-34.32 2.77Z"/><path class="cls-6" d="M64.19 229.7c2.37 1.3 4.71 2.66 7 4l4 2.39a94.79 94.79 0 0 1 16.81-.84 37.48 37.48 0 0 1 6.42.74c.82.18.63 1.47-.2 1.29a48.77 48.77 0 0 0-11.51-.76 115 115 0 0 0-9.65.7q5.92 3.59 11.75 7.35l3.73 2.43a133 133 0 0 1 16.34.14c2.52.17 5 .43 7.52.8a.66.66 0 0 1-.2 1.3 119.23 119.23 0 0 0-21.78-1 437.72 437.72 0 0 1 17.14 12l.27.2c6.44-.06 12.91 0 19.32.58a40.88 40.88 0 0 1 5.83.81c.82.19.63 1.49-.2 1.3a60.77 60.77 0 0 0-11.42-1.13c-3.76-.17-7.52-.23-11.28-.23h-.52c6.48 4.87 12.79 10 18.79 15.42 6.48.76 12.94 1.79 19.35 2.95.83.15.64 1.45-.19 1.3-5.8-1.05-11.64-2-17.49-2.72l.34.32c6.48 6.05 12.7 12.58 17.63 20 .53.8 1 1.62 1.55 2.45s-.62 1.5-1 .77c-4.48-7.4-10.38-13.91-16.57-19.91-.88-.86-1.77-1.7-2.67-2.54a60.49 60.49 0 0 1 1.93 20.9c-.05.45-.11.91-.19 1.35-.16.83-1.46.64-1.3-.19a24.91 24.91 0 0 0 .37-3.95 58 58 0 0 0-.69-10.85 79 79 0 0 0-1.88-8.87 253.7 253.7 0 0 0-18-14.81l-.35-.26a49.84 49.84 0 0 1 3.18 20.15c0 .56 0 1.13-.11 1.69-.09.84-1.39.64-1.3-.2a34.8 34.8 0 0 0 .13-4.68 52 52 0 0 0-1.43-11.18 41.42 41.42 0 0 0-2.55-7.34q-8.41-6.27-17.16-12.06a40.7 40.7 0 0 1 2.15 8.3 88.92 88.92 0 0 1 1.09 9.35c0 .64.09 1.28.11 1.92 0 .84-1.27 1-1.3.15a71.88 71.88 0 0 0-2.18-15.86 25.88 25.88 0 0 0-1.93-5.23l-1.33-.88q-6.89-4.5-13.91-8.77a54.38 54.38 0 0 1 2.75 8.41 132.03 132.03 0 0 1 2.3 11.08c.13.84-1.17 1-1.3.16a92.49 92.49 0 0 0-3.59-15.59 37.21 37.21 0 0 0-2.15-5.28l-2.29-1.37a523.1 523.1 0 0 0-8.54-4.93l-.12-.07c-.78-.41-.26-1.61.48-1.2Z"/><path class="cls-3" d="M467.1 74s32.07-2.35 41.79 20.09c0 .02-22.48 6.55-41.79-20.09Z"/><path class="cls-9" d="M470.78 74c-2.29 0-3.68.06-3.68.06 19.31 26.62 41.79 20.09 41.79 20.09-.29-.65-.6-1.29-.92-1.91-6.35.76-22.45.36-37.19-18.24Z"/><path class="cls-3" d="M462.47 66.83s24.59-20.73 45.63-8.27c0 0-14.36 18.44-45.63 8.27Z"/><path class="cls-9" d="M465.41 64.62a46.21 46.21 0 0 0-2.94 2.21c31.27 10.17 45.63-8.27 45.63-8.27-.62-.37-1.24-.7-1.86-1-4.71 4.32-17.95 13.5-40.83 7.06Z"/><path class="cls-3" d="M458.67 73s25.93 19 18.78 42.39c0 .02-21.34-9.58-18.78-42.39Z"/><path class="cls-9" d="M461.5 75.36c-1.71-1.52-2.83-2.34-2.83-2.34-2.56 32.79 18.78 42.39 18.78 42.39.21-.69.39-1.37.54-2-5.32-3.6-17.35-14.3-16.49-38.05Z"/><path class="cls-3" d="M438.37 50.64s26.95-17.54 46.3-2.57c0 0-16.53 16.57-46.3 2.57Z"/><path class="cls-9" d="M441.56 48.82c-2 1.06-3.19 1.82-3.19 1.82 29.77 14 46.3-2.57 46.3-2.57-.57-.44-1.15-.85-1.73-1.23-5.2 3.71-19.47 11.16-41.38 1.98Z"/><path class="cls-3" d="M435.17 55.11s23.4 22.06 13.41 44.39c0 0-20-12.16-13.41-44.39Z"/><path class="cls-9" d="M437.7 57.78c-1.52-1.71-2.53-2.67-2.53-2.67-6.59 32.23 13.41 44.39 13.41 44.39.29-.66.56-1.31.79-2-4.84-4.15-15.46-16.26-11.67-39.72Z"/><path class="cls-3" d="M417.93 34.36s24.58-20.73 45.62-8.27c0 0-14.35 18.48-45.62 8.27Z"/><path class="cls-9" d="M420.87 32.15a46.21 46.21 0 0 0-2.94 2.21c31.27 10.21 45.62-8.27 45.62-8.27-.61-.37-1.23-.7-1.86-1-4.69 4.32-17.94 13.49-40.82 7.06Z"/><path class="cls-3" d="M415.87 39.47s22.53 22.94 11.7 44.86c0 0-19.52-12.92-11.7-44.86Z"/><path class="cls-9" d="M418.29 42.23c-1.45-1.77-2.42-2.76-2.42-2.76-7.82 31.94 11.7 44.86 11.7 44.86.32-.64.6-1.29.87-1.93-4.68-4.4-14.83-16.87-10.15-40.17Z"/><path class="cls-3" d="M402.12 18.94S427 2.42 445.06 16.13c0 0-15.19 15.53-42.94 2.81Z"/><path class="cls-9" d="M405.06 17.22c-1.86 1-2.94 1.72-2.94 1.72 27.75 12.72 42.94-2.81 42.94-2.81-.53-.4-1.06-.78-1.61-1.13-4.79 3.5-17.97 10.56-38.39 2.22Z"/><path class="cls-3" d="M398.58 22s18.89 22.16 7.71 41.27c0-.02-16.81-12.93-7.71-41.27Z"/><path class="cls-9" d="M400.59 24.63c-1.19-1.69-2-2.65-2-2.65-9.1 28.36 7.71 41.27 7.71 41.27.32-.56.62-1.12.9-1.69-3.96-4.24-12.32-16.18-6.61-36.93Z"/><path class="cls-6" d="M387.54 8.93c2 2.14 4.12 4.22 6.21 6.3l3.62 3.56a104 104 0 0 0 3.73 17.89 41.86 41.86 0 0 0 2.56 6.56c.42.81 1.73.25 1.31-.57a52.56 52.56 0 0 1-4-11.92c-.8-3.42-1.44-6.88-2-10.36q5.43 5.25 11 10.34c1.2 1.1 2.41 2.18 3.62 3.27a143.93 143.93 0 0 0 4.68 17.18c.88 2.6 1.84 5.17 2.93 7.69a.71.71 0 0 0 1.31-.56 129.14 129.14 0 0 1-7.1-22.68c5.69 5 11.49 10 17.43 14.73l.29.23c1.71 6.8 3.6 13.59 6 20.19a43.94 43.94 0 0 0 2.48 5.93c.42.8 1.74.24 1.3-.57a68.56 68.56 0 0 1-4.39-11.72 300.53 300.53 0 0 1-3.37-11.82l-.14-.55a274.1 274.1 0 0 0 21.46 15.52 346.1 346.1 0 0 0 8.48 19.58c.39.83 1.7.27 1.31-.57a351.09 351.09 0 0 1-7.71-17.68l.43.28c8.18 5.15 16.77 9.89 25.94 13l3 1c1 .34 1.41-1.06.53-1.32-9.05-2.66-17.54-7.07-25.58-11.94a149.4 149.4 0 0 1-3.42-2.11c7.62-.1 15.44-1 22.56-3.77a13.64 13.64 0 0 0 1.37-.57c.83-.4.26-1.71-.56-1.31a27.79 27.79 0 0 1-4.06 1.49 63.78 63.78 0 0 1-11.63 2.27 85.44 85.44 0 0 1-9.86.49 286.36 286.36 0 0 1-20.59-14.83l-.37-.3A54.27 54.27 0 0 0 458.46 49c.59-.18 1.18-.37 1.75-.59.86-.33.29-1.63-.56-1.31a38.18 38.18 0 0 1-4.9 1.44 56.34 56.34 0 0 1-12.19 1.59 45.1 45.1 0 0 1-8.44-.65 438.27 438.27 0 0 1-17.46-14.73 45.55 45.55 0 0 0 9.34 0 99.37 99.37 0 0 0 10.16-1.45c.68-.13 1.37-.26 2-.42.89-.2.69-1.61-.2-1.41a78.37 78.37 0 0 1-17.32 2.1 27.25 27.25 0 0 1-6-.58l-1.3-1.16q-6.66-6-13.1-12.22a59.59 59.59 0 0 0 9.62.56c3.43 0 6.85-.19 10.26-.48l2.05-.19c.91-.1.71-1.52-.2-1.42a101.39 101.39 0 0 1-17.42.54 40.1 40.1 0 0 1-6.16-.8l-2.08-2a604.76 604.76 0 0 1-7.56-7.64l-.1-.18c-.65-.63-1.74.26-1.11.93Z"/><path class="cls-3" d="M71.14 416.33s2.36 29.41 24.08 35.08c0 0 2.78-21.3-24.08-35.08Z"/><path class="cls-9" d="M71.6 419.67c-.36-2.07-.46-3.34-.46-3.34 26.86 13.78 24.08 35.08 24.08 35.08-.64-.17-1.26-.36-1.86-.56-.22-5.85-2.79-20.43-21.76-31.18Z"/><path class="cls-3" d="M64 413.14s-15.36 25.2-1.11 42.53c-.03 0 14.72-15.61 1.11-42.53Z"/><path class="cls-9" d="M62.38 416.11c.92-1.88 1.59-3 1.59-3 13.64 26.92-1.11 42.53-1.11 42.53-.42-.5-.81-1-1.18-1.54 3.32-4.85 9.74-18.1.7-37.99Z"/><path class="cls-3" d="M69.05 408.82s20.87 20.86 41.08 11.09c0 0-11.7-18.01-41.08-11.09Z"/><path class="cls-9" d="M71.56 411.06c-1.61-1.34-2.51-2.24-2.51-2.24 29.38-6.92 41.08 11.09 41.08 11.09-.6.29-1.19.55-1.78.78-3.97-4.33-15.35-13.69-36.79-9.63Z"/><path class="cls-3" d="M45.91 393.55s-12.13 26.9 4.15 42.34c0 0 12.71-17.31-4.15-42.34Z"/><path class="cls-9" d="M44.7 396.69c.68-2 1.21-3.14 1.21-3.14 16.86 25 4.15 42.34 4.15 42.34-.48-.45-.93-.91-1.36-1.39 2.65-5.24 7.42-19.23-4-37.81Z"/><path class="cls-3" d="M49.51 390s23.29 18.14 42.14 6c0 0-13.84-16.47-42.14-6Z"/><path class="cls-9" d="M52.29 391.93c-1.77-1.13-2.78-1.91-2.78-1.91 28.3-10.49 42.14 5.98 42.14 5.98-.56.36-1.11.68-1.67 1-4.48-3.85-16.98-11.79-37.69-5.07Z"/><path class="cls-3" d="M28.27 377.29s-15.36 25.2-1.1 42.54c0 0 14.75-15.61 1.1-42.54Z"/><path class="cls-9" d="M26.68 380.27c.93-1.89 1.59-3 1.59-3 13.65 26.93-1.1 42.54-1.1 42.54-.42-.51-.81-1-1.18-1.55 3.27-4.86 9.73-18.15.69-37.99Z"/><path class="cls-3" d="M32.61 374.7S56.58 391.92 75 379c0 0-14.5-15.86-42.39-4.3Z"/><path class="cls-9" d="M35.46 376.51a39.4 39.4 0 0 1-2.85-1.81C60.5 363.14 75 379 75 379c-.54.37-1.09.73-1.64 1.05-4.66-3.6-17.42-11.05-37.9-3.54Z"/><path class="cls-3" d="M12.07 365.11S.57 390 15.54 404.45c0 0 11.96-15.95-3.47-39.34Z"/><path class="cls-9" d="M10.92 368a37.59 37.59 0 0 1 1.15-2.91c15.43 23.39 3.47 39.34 3.47 39.34a25.4 25.4 0 0 1-1.25-1.3c2.5-4.82 7.06-17.76-3.37-35.13Z"/><path class="cls-3" d="M14.33 361.47s22.75 14 38.52 1.21c0 0-14.07-13.43-38.52-1.21Z"/><path class="cls-9" d="M17 362.93c-1.7-.85-2.69-1.46-2.69-1.46 24.45-12.22 38.52 1.21 38.52 1.21-.47.37-.94.72-1.41 1.06C47 360.75 35 354.83 17 362.93Z"/><path class="cls-6" d="M1 353.29c2.22 1.54 4.4 3.14 6.58 4.75q1.87 1.38 3.74 2.79a94.62 94.62 0 0 1 16.68.87 37.63 37.63 0 0 1 6.31 1.41c.8.26.48 1.52-.33 1.26a48 48 0 0 0-11.37-1.95 115.3 115.3 0 0 0-9.66-.31q5.5 4.18 10.91 8.53c1.17.93 2.32 1.88 3.48 2.83a131.93 131.93 0 0 1 16.23 1.84c2.49.43 5 .94 7.4 1.57a.66.66 0 0 1-.33 1.27 118.94 118.94 0 0 0-21.57-3.26q8.07 6.67 15.81 13.74l.25.23c6.4.6 12.83 1.37 19.14 2.58a41.18 41.18 0 0 1 5.73 1.41c.79.28.47 1.55-.33 1.27a62.36 62.36 0 0 0-11.24-2.34c-3.72-.55-7.46-1-11.19-1.4l-.52-.05a260.39 260.39 0 0 1 17.08 17.29 329.45 329.45 0 0 1 19 4.94c.81.24.48 1.51-.33 1.27a323.91 323.91 0 0 0-17.12-4.52l.31.36c5.82 6.69 11.33 13.82 15.46 21.69.45.86.88 1.73 1.29 2.6s-.77 1.43-1.13.67c-3.68-7.84-8.87-14.92-14.4-21.53-.79-1-1.59-1.88-2.4-2.81 1 6.93 1.22 14.15-.26 21-.09.45-.19.89-.32 1.33-.25.8-1.52.48-1.27-.33a25.76 25.76 0 0 0 .78-3.89 58 58 0 0 0 .43-10.86 78.12 78.12 0 0 0-.94-9 258.3 258.3 0 0 0-16.34-16.59l-.32-.3A49.81 49.81 0 0 1 47.26 412a23.3 23.3 0 0 1-.29 1.67c-.17.83-1.44.5-1.26-.33a36.14 36.14 0 0 0 .61-4.64 51.8 51.8 0 0 0-.26-11.27 41.85 41.85 0 0 0-1.78-7.57 405.94 405.94 0 0 0-15.81-13.78 40.81 40.81 0 0 1 1.28 8.49 89.52 89.52 0 0 1 .11 9.41q0 1-.09 1.92c-.06.83-1.37.86-1.31 0a72.55 72.55 0 0 0-.52-16 26.5 26.5 0 0 0-1.37-5.41l-1.24-1Q19 368.3 12.41 363.32a54.63 54.63 0 0 1 1.86 8.68c.46 3.11.78 6.24 1 9.37 0 .63.08 1.26.11 1.89 0 .84-1.27.86-1.31 0a93.27 93.27 0 0 0-2-15.88 36 36 0 0 0-1.59-5.47l-2.13-1.61c-2.64-2-5.31-3.87-8-5.79l-.11-.07c-.63-.44.01-1.63.76-1.15Z"/><path class="cls-6" d="M27.18 368.61s21.37 1.07 41.65 35.27C67.56 364.14 85 351.75 85 351.75 68.26 330.05 69 297 69 297c-26.1-9.69-43.55-41.75-43.55-41.75s2.55 36.41-14.24 58.6c0 0 18.43 27.46 15.97 54.76Z"/><path class="cls-3" d="M21.31 316.64a51.07 51.07 0 0 0 5.62-8.11 49.76 49.76 0 0 0 6.77-19.46c0-.41.07-.83.1-1.24l3.42 11.72c4.41 15.27 4.43 32.88-3.47 45.18a19.12 19.12 0 0 1-1.66 2.27c-1 1.16.74 3.07 1.76 1.92a29.86 29.86 0 0 0 4.66-8 54.4 54.4 0 0 0 4.08-22.78v-.29l6.53 22.38c1.78 6.28 1.09 13 0 19.1a72 72 0 0 1-2.49 10c-.53 1.54 1.56 2.94 2.09 1.38a73.37 73.37 0 0 0 2.74-10.95 66.47 66.47 0 0 0 1-8.12l7.5 25.72c1.48 5.05 2.79 10.2 4.44 15.2l.06.21a1.16 1.16 0 1 0 2.2-.64q-1.86-6.2-3.66-12.46l-8.34-28.61a67.46 67.46 0 0 0 5.21 6.31 73.06 73.06 0 0 0 8.2 7.76c1.28 1 2.29-1.27 1-2.29a71.76 71.76 0 0 1-7.48-7.1c-4.2-4.51-8.4-9.84-10.28-16.09L44.69 317c5.28 9 12.42 16.46 21.27 20.64a20.79 20.79 0 0 0 2.84 1.14c1.48.42 1.94-2.14.46-2.57a26.56 26.56 0 0 1-7.4-3.77 51.17 51.17 0 0 1-15-16.2 74.58 74.58 0 0 1-7.42-17.3l-3.41-11.71c5.86 7.83 14.51 13.15 22.73 16.41 1.08.42 2.18.84 3.28 1.16 1.48.43 1.94-2.13.46-2.56a48.62 48.62 0 0 1-8.33-3.44 48.43 48.43 0 0 1-15.47-12 32.61 32.61 0 0 1-5.7-10.06 211.4 211.4 0 0 0-2.89-9.77l-.06-.22a1.16 1.16 0 1 0-2.21.64l2.54 8.72c3.81 13.32-1.95 26.67-8.87 36.11a28.2 28.2 0 0 1-2 2.51c-.98 1.15.78 3.07 1.8 1.91Z"/><path class="cls-7" d="M27.18 368.61s21.37 1.07 41.65 35.27a118.31 118.31 0 0 1 .22-12.09c-18-24.32-35-25.19-35-25.19 2.46-27.3-16-54.76-16-54.76 10.54-13.93 13.48-33.44 14.2-46.06a111.4 111.4 0 0 1-6.82-10.54s2.57 36.42-14.22 58.61c0 0 18.43 27.46 15.97 54.76Z"/><path class="cls-10" d="m152.55 233.63-9.7-5.69-15.54-9.12-.71-.42.66 1.12 9 7.22 14.62 11.71 3.34 2.69c.89.7-.28 2-1.16 1.3l-9.12-7.31-14.44-11.58 1.36 2.55 17.32 19.33 2.42 2.7c.75.84-.73 1.81-1.47 1l-15.2-17c2.17 4.42 4.23 8.89 6.13 13.41q1.29 3.06 2.5 6.15c.41 1-1.28 1.61-1.68.58q-4.06-10.32-9-20.3 1.49 9.47 3 18.93l.55 3.51c.18 1.17-1.61 1.22-1.78.14q-1.9-12.21-3.82-24.4l-.51-3.26c-.55-1-1.11-2.11-1.69-3.15l.27 7.37.63 17.77.15 4.12c0 1.1-1.75 1.24-1.79.14l-.44-11.14-.64-17.77c0-1.31-.09-2.62-.14-3.93l-.91-1.57-.76 7.41-1.65 15.93-.38 3.69c-.13 1.23-1.86.77-1.75-.32q.51-5 1-10.05.81-8 1.64-15.93l.34-3.31-1.6-2.64-1.52 7.7q-1.52 7.91-3.08 15.79l-.71 3.64a.9.9 0 0 1-1.76-.32 828.8 828.8 0 0 1 2-9.92l3.1-15.74.65-3.28-1.18-1.88-.67-1-2.08 7.83-4.15 15.66-1 3.62c-.28 1.06-2 .75-1.75-.32q1.31-4.9 2.6-9.82l4.15-15.66.87-3.29c-.74-1.1-1.5-2.19-2.26-3.27l-2.44 8-4.76 15.61-1.1 3.63c-.32 1.05-2.08.74-1.76-.32l3-9.84 4.76-15.62 1-3.31q-1.38-1.9-2.79-3.77l-2.35 8q-2.3 7.77-4.58 15.55l-1.06 3.59c-.35 1.2-2.07.75-1.75-.32l2.86-9.74 4.58-15.54 1-3.25c-.7-.9-1.41-1.81-2.13-2.7l-6.76 21.69-1 3.24c-.33 1.08-2.08.74-1.75-.32l7.28-23.37.9-2.89q-1.65-2-3.34-3.94-3 10.77-6.11 21.53l-.94 3.31c-.31 1.1-2.06.75-1.75-.32l6.58-23.18c.27-1 .55-1.95.83-2.92-.93-1-1.86-2.07-2.81-3.08l-5.41 20.81-.82 3.19c-.28 1.07-2 .76-1.76-.32l5.82-22.42.73-2.78-1.32-1.38c-.44-.46-.87-.87-1.31-1.31l-4.16 18.94-.63 2.88c-.24 1.08-2 .76-1.75-.32l4.5-20.54.54-2.44-2.41-2.32-3.8 17.89-.59 2.78c-.2.93-2 .76-1.75-.32l4.12-19.43.49-2.32c-.95-.87-1.92-1.73-2.89-2.58L82.75 187l-.51 2.55c-.22 1.08-2 .76-1.76-.32L84 171.65l.42-2.05-2.46-2-3.22 13.2-.52 2.11c-.26 1.07-2 .76-1.75-.32l3.59-14.64.39-1.62q-1.5-1.19-3-2.34l-1.42 11.47-.23 1.85c-.13 1.09-1.89.77-1.75-.32l1.6-12.92c0-.43.11-.86.16-1.29-.64-.47-1.27-.94-1.92-1.39l-1.69-1.17-.9 10.38c-.09 1.09-1.85.77-1.76-.32l.95-11.19a116.26 116.26 0 0 0-12.76-7.39q-2.46-1.22-5-2.27c-.74-.3-1.55-.53-2.27-.87h-.1c-1.08-.35-.29-1.89.79-1.54a50.2 50.2 0 0 1 6 2.52 116.41 116.41 0 0 1 14.45 8.25l16.19-3.17 2.34-.45c1.13-.22 1.25 1.49.13 1.7l-16.46 3.22h-.22c1.14.78 2.26 1.57 3.36 2.38l17.27-2.28 2.54-.34c1.14-.15 1.27 1.56.13 1.71l-17.55 2.34h-.39q1.41 1.06 2.79 2.16l21-2.14 3.09-.32a.86.86 0 1 1 .13 1.71l-21.35 2.23-1 .1 2.1 1.76 23.2-1.06 3.34-.15a.86.86 0 1 1 .13 1.71L88.82 170l-1.21.06c.87.76 1.74 1.54 2.59 2.32l9.92-.18 16.5-.29 3.83-.07c1.14 0 1.28 1.69.13 1.71l-10.33.19-16.5.29L92 174c.73.68 1.44 1.36 2.15 2.06l10.77.15 18 .24h4.12c1.14 0 1.28 1.72.13 1.71L116 178.1l-18-.24h-2.08c.82.82 1.62 1.65 2.42 2.48l11.27.34 18.67.58 4.26.13c1.14 0 1.29 1.74.14 1.7l-11.73-.35-18.67-.58-2.28-.07c.89 1 1.76 1.93 2.63 2.9l11.69 1 19.06 1.71 4.42.39c1.14.1.79 1.78-.35 1.68l-11.94-1.06-19.08-1.71-2.18-.19c1.06 1.22 2.11 2.46 3.13 3.7l10.79 1.49 17.66 2.36 4 .54c1.14.15.79 1.83-.35 1.68l-11.08-1.48-17.66-2.35-1.82-.25 1.92 2.44 10.65 2.06 17.42 3.41 4 .78a.86.86 0 0 1-.35 1.69l-10.93-2.14-17.43-3.41-1.72-.34q1.31 1.74 2.58 3.51l10.52 2.58 17.42 4.26 4 1a.86.86 0 0 1-.34 1.68l-10.89-2.68-17.39-4.27-1.79-.45 1.32 1.89.74 1.11 10.13 3.51 16.44 5.69 3.77 1.31c1.08.37.29 1.91-.78 1.54l-10.31-3.57-16.44-5.69-1.25-.43c.55.83 1.09 1.67 1.62 2.51l9.69 4.33 15.79 7.05 3.62 1.62c1 .46.26 2-.78 1.54l-9.9-4.42-15.79-7-1-.44 1.36 2.23 9.44 5.54 15.53 9.06 3.54 2.08c.97.57.2 2.13-.78 1.55Z"/><path class="cls-6" d="M7 231.12a96.39 96.39 0 0 1 30.76 12.43 165.61 165.61 0 0 0 3.79 27.17 25.7 25.7 0 0 0 2.6 7.28 1.15 1.15 0 0 0 2-1.16 22 22 0 0 1-2.19-5.94 95.34 95.34 0 0 1-1.71-8.53 228.92 228.92 0 0 1-1.95-16c0-.41-.07-.81-.1-1.22a96.13 96.13 0 0 1 8.32 6.21A113 113 0 0 1 63.07 266c-.25.55-.43 1.14-.6 1.54A53 53 0 0 0 60.3 274a52.08 52.08 0 0 0-.88 24.47c.3 1.44 2.52.83 2.21-.61a49.32 49.32 0 0 1 .59-22.15 47.6 47.6 0 0 1 2.5-7.6 141.05 141.05 0 0 1 11.2 16.42c1.3 2.23 2.53 4.5 3.73 6.78a282.46 282.46 0 0 0-4.35 30.29c-.12 1.47 2.18 1.47 2.3 0a267.54 267.54 0 0 1 3.75-27 197.19 197.19 0 0 1 9.79 23.58 176.24 176.24 0 0 1-4.46 31.93c-.34 1.44 1.87 2.05 2.21.62A180.61 180.61 0 0 0 93.06 324a238.59 238.59 0 0 1 6.79 27.1q.93 4.86 1.62 9.75l.12.84a.25.25 0 0 1 0 .1l.06.43.17 1.33.17 1.56a1.5 1.5 0 0 1 0 .2c.14 1.46 2.43 1.48 2.3 0-.38-4.06-1-8.1-1.75-12.11a236.87 236.87 0 0 0-7.08-29.16c-.4-1.28-.81-2.55-1.23-3.83a66.41 66.41 0 0 1 23.12 20.92c.49.71 1 1.42 1.43 2.17a1.15 1.15 0 0 0 2-1.16 55.19 55.19 0 0 0-4.59-6.36 73.06 73.06 0 0 0-12.74-12.42 57.21 57.21 0 0 0-10.24-6.22 198.35 198.35 0 0 0-10.31-24.59 59.89 59.89 0 0 1 17 6.54 101.11 101.11 0 0 1 13.19 8.69c.81.63 1.61 1.27 2.38 1.94 1.11 1 2.74-.65 1.63-1.62a88.2 88.2 0 0 0-24.2-14.86A49.5 49.5 0 0 0 81.59 290c-.48-.91-1-1.82-1.44-2.72a146 146 0 0 0-13.42-20.38c6.52-.13 13 1.76 19 4.19a96.76 96.76 0 0 1 15.58 8.18c1 .63 2 1.27 2.92 2 1.2.86 2.35-1.13 1.16-2a89.56 89.56 0 0 0-22.56-11.69 54.81 54.81 0 0 0-9.34-2.43 40.17 40.17 0 0 0-4.77-.5h-3.76a117.89 117.89 0 0 0-11-11.66 104.09 104.09 0 0 0-11.64-9.23 122.91 122.91 0 0 1 18.5.81 213.92 213.92 0 0 1 20.23 3.23c1.43.31 2-1.9.61-2.22a182.53 182.53 0 0 0-30.34-4.06 91.85 91.85 0 0 0-12.19.15 96.41 96.41 0 0 0-25.46-11.27c-2-.56-4-1.05-6.07-1.49-1.44-.31-2.05 1.91-.6 2.21Z"/><path class="cls-11" d="M112.5 361.58a9.25 9.25 0 1 0-5.62 11.82 9.26 9.26 0 0 0 5.62-11.82Z"/><path class="cls-12" d="M112 368.88a8.1 8.1 0 0 0-.32-1.14 9.23 9.23 0 0 0-17-1.09 9.25 9.25 0 1 1 17.32 2.23Z"/><path class="cls-13" d="M101.51 369a2.28 2.28 0 1 1 .18 3.22 2.29 2.29 0 0 1-.18-3.22Z"/><path class="cls-11" d="M93.69 349.52a7.69 7.69 0 1 0-4.69 9.82 7.7 7.7 0 0 0 4.69-9.82Z"/><path class="cls-12" d="M93.29 355.58a8.23 8.23 0 0 0-.26-.94 7.68 7.68 0 0 0-14.09-.91 7.68 7.68 0 1 1 14.35 1.85Z"/><path class="cls-13" d="M84.56 355.71a1.9 1.9 0 1 1 .14 2.68 1.9 1.9 0 0 1-.14-2.68Z"/><path class="cls-11" d="M123.79 338.45a6.58 6.58 0 1 0 2.11 9.07 6.59 6.59 0 0 0-2.11-9.07Z"/><path class="cls-12" d="M126.75 342.73a6.94 6.94 0 0 0-.68-.49 6.57 6.57 0 0 0-9.92 6.9 6.58 6.58 0 1 1 10.6-6.41Z"/><path class="cls-13" d="M121 347.47a1.63 1.63 0 1 1 1.53 1.72 1.64 1.64 0 0 1-1.53-1.72Z"/><path class="cls-11" d="M117.37 301a9.25 9.25 0 1 0 8.44 10 9.26 9.26 0 0 0-8.44-10Z"/><path class="cls-12" d="M123.81 304.47a8.76 8.76 0 0 0-1.16-.18 9.24 9.24 0 0 0-8 15 9.25 9.25 0 1 1 9.16-14.81Z"/><path class="cls-13" d="M119.62 314.11a2.28 2.28 0 1 1 3 1.17 2.29 2.29 0 0 1-3-1.17Z"/><path class="cls-11" d="M82.67 320a7.15 7.15 0 1 0-4.34 9.14 7.15 7.15 0 0 0 4.34-9.14Z"/><path class="cls-12" d="M82.3 325.65a6.74 6.74 0 0 0-.24-.88 7.15 7.15 0 0 0-13.06-.85 7.15 7.15 0 1 1 13.35 1.73Z"/><path class="cls-13" d="M74.18 325.77a1.77 1.77 0 1 1 .14 2.49 1.76 1.76 0 0 1-.14-2.49Z"/><path class="cls-11" d="M66.81 290.9a8.94 8.94 0 1 0-1.06 12.6 8.94 8.94 0 0 0 1.06-12.6Z"/><path class="cls-12" d="M68.86 297.67a10 10 0 0 0-.68-.93 8.93 8.93 0 0 0-15.71 4.78 8.94 8.94 0 1 1 16.39-3.85Z"/><path class="cls-13" d="M59.41 301.38a2.21 2.21 0 1 1 1.25 2.86 2.2 2.2 0 0 1-1.25-2.86Z"/><path class="cls-11" d="M49.4 271.16a7.16 7.16 0 1 0 .28 10.12 7.15 7.15 0 0 0-.28-10.12Z"/><path class="cls-12" d="M51.63 276.36a6.47 6.47 0 0 0-.61-.67A7.15 7.15 0 0 0 39 280.88a7.15 7.15 0 1 1 12.68-4.52Z"/><path class="cls-13" d="M44.45 280.15a1.76 1.76 0 1 1 1.26 2.16 1.77 1.77 0 0 1-1.26-2.16Z"/><path class="cls-11" d="M106.36 272.65a6.59 6.59 0 1 0 4.58 8.11 6.6 6.6 0 0 0-4.58-8.11Z"/><path class="cls-12" d="M110.41 275.92a8.11 8.11 0 0 0-.79-.28 6.58 6.58 0 0 0-7.58 9.42 6.58 6.58 0 1 1 8.37-9.14Z"/><path class="cls-13" d="M106.2 282.1a1.63 1.63 0 1 1 2 1.22 1.64 1.64 0 0 1-2-1.22Z"/><path class="cls-11" d="M79.53 236.67a9.25 9.25 0 1 0 8.45 10 9.25 9.25 0 0 0-8.45-10Z"/><path class="cls-12" d="M86 240.12a9 9 0 0 0-1.16-.18 9.24 9.24 0 0 0-8 15A9.25 9.25 0 1 1 86 240.12Z"/><path class="cls-13" d="M81.79 249.75a2.28 2.28 0 1 1 3 1.17 2.29 2.29 0 0 1-3-1.17Z"/><path class="cls-10" d="m399.66 166.4-9.66-5.69-15.54-9.13-.71-.41.65 1.12 9 7.22 14.6 11.71 3.35 2.69c.88.7-.28 2-1.16 1.3l-9.12-7.31-14.44-11.58c.45.85.91 1.69 1.35 2.54l17.32 19.33 2.42 2.7c.75.84-.73 1.81-1.47 1l-15.2-17q3.26 6.63 6.13 13.41 1.29 3.06 2.5 6.15c.41 1-1.28 1.61-1.68.58q-4.06-10.32-9-20.3 1.49 9.47 3 18.93l.55 3.51c.18 1.17-1.61 1.22-1.78.14l-3.82-24.4-.51-3.26c-.55-1.05-1.12-2.11-1.69-3.15q.14 3.68.26 7.37l.64 17.77c0 1.37.1 2.74.14 4.12 0 1.1-1.74 1.24-1.78.13l-.4-11.13-.68-17.76-.14-3.93c-.3-.53-.61-1-.91-1.57l-.77 7.41q-.81 8-1.64 15.93l-.38 3.69c-.13 1.23-1.86.77-1.75-.32.34-3.36.69-6.71 1-10.06l1.66-15.89.34-3.31c-.53-.88-1.06-1.76-1.61-2.64l-1.51 7.7-3.11 15.73-.72 3.64c-.21 1.08-2 .77-1.75-.32l2-9.93 3.1-15.73.65-3.28-1.18-1.88-.67-1-2.08 7.84-4.15 15.66-1 3.62c-.28 1.06-2 .75-1.75-.32l2.6-9.82 4.15-15.66.87-3.29c-.74-1.1-1.5-2.19-2.26-3.27l-2.44 8-4.76 15.61a501.1 501.1 0 0 0-1.1 3.63c-.32 1-2.08.74-1.76-.32l3-9.85q2.39-7.8 4.76-15.61l1-3.31q-1.38-1.91-2.8-3.78l-2.35 8-4.57 15.54-1.06 3.6c-.31 1-2.07.74-1.76-.32l2.87-9.74 4.58-15.54 1-3.25a195.3 195.3 0 0 0-2.14-2.7l-6.75 21.69c-.34 1.08-.68 2.16-1 3.24s-2.09.74-1.76-.32l7.28-23.37.9-2.89q-1.64-2-3.33-3.94l-6.11 21.53-.94 3.31c-.31 1.1-2.06.75-1.76-.32l6.59-23.18c.27-1 .55-2 .83-2.92-.93-1-1.86-2.07-2.81-3.08l-5.41 20.81-.83 3.19c-.28 1.07-2 .75-1.75-.32l5.8-22.39.72-2.78-1.31-1.38-1.31-1.31-4.16 18.94-.63 2.88c-.24 1.08-2 .76-1.75-.32l4.5-20.54.54-2.44c-.8-.78-1.6-1.55-2.42-2.32q-1.89 9-3.79 17.89l-.59 2.78c-.23 1.08-2 .76-1.75-.32l4.12-19.43.49-2.32c-1-.87-1.92-1.73-2.89-2.58l-3.24 16.11-.51 2.55c-.22 1.08-2 .76-1.76-.33l3.54-17.61.41-2a56.4 56.4 0 0 0-2.45-2l-3.24 13.24-.52 2.11c-.26 1.07-2 .76-1.75-.32l3.58-14.64.4-1.62-3-2.34-1.42 11.46-.23 1.86c-.13 1.09-1.89.77-1.75-.32l1.6-12.92.16-1.29c-.64-.47-1.27-.94-1.92-1.39l-1.69-1.17-.87 10.37c-.1 1.1-1.85.77-1.76-.32l.95-11.18a116.26 116.26 0 0 0-12.76-7.39q-2.46-1.22-5-2.27c-.74-.3-1.55-.53-2.27-.87h-.1c-1.08-.35-.29-1.89.78-1.54a51.26 51.26 0 0 1 6 2.51 118.13 118.13 0 0 1 14.44 8.25l16.2-3.16 2.34-.45c1.12-.22 1.25 1.49.13 1.7L320.94 92h-.22c1.13.78 2.25 1.57 3.36 2.38L341.35 92l2.54-.34c1.14-.15 1.27 1.56.13 1.71l-17.57 2.33h-.39q1.41 1.07 2.79 2.16l21-2.14 3.09-.32a.86.86 0 1 1 .13 1.71l-21.39 2.18-1 .1 2.1 1.76 23.22-1.04 3.35-.15a.85.85 0 1 1 .13 1.7l-23.58 1.08-1.21.06c.87.76 1.74 1.54 2.59 2.32l9.92-.18 16.5-.29 3.82-.07c1.15 0 1.29 1.69.14 1.71l-10.33.18-16.5.3h-1.74c.72.68 1.44 1.36 2.15 2.06l10.77.15 18 .24h4.12c1.14 0 1.28 1.72.13 1.71l-11.23-.15-18-.24h-2.08c.81.82 1.62 1.64 2.42 2.48l11.27.34 18.67.58 4.26.13c1.14 0 1.28 1.74.13 1.7l-11.72-.36-18.67-.57-2.28-.07c.89 1 1.76 1.92 2.63 2.9l11.69 1 19.06 1.7 4.42.4c1.14.1.79 1.78-.35 1.68l-11.94-1.06-19.07-1.71-2.17-.19q1.59 1.83 3.13 3.7l10.79 1.44 17.65 2.36 4.05.54c1.13.15.79 1.83-.35 1.68l-11.08-1.48-17.66-2.36-1.83-.24 1.92 2.44 10.62 2.08 17.46 3.51 4 .78a.86.86 0 0 1-.35 1.69l-10.93-2.14-17.43-3.42-1.72-.33q1.31 1.74 2.58 3.5l10.51 2.59 17.39 4.28 4 1a.86.86 0 0 1-.35 1.69l-10.89-2.68-17.38-4.28-1.79-.44 1.32 1.89.74 1.11 10.13 3.51 16.44 5.69 3.77 1.31c1.08.37.29 1.91-.78 1.54L385 146.86l-16.43-5.69-1.25-.43c.54.83 1.09 1.67 1.62 2.51l9.69 4.33 15.79 7 3.62 1.62c1 .46.26 2-.78 1.54l-9.91-4.42-15.78-7.05-1-.45 1.36 2.24 9.44 5.54 15.54 9.12 3.55 2.09c.96.61.18 2.19-.8 1.59Z"/><path class="cls-14" d="M.74 124.48a5.63 5.63 0 0 1 4-6.83l50.54-13a5.63 5.63 0 0 1 6.83 4L90.52 219a5.63 5.63 0 0 1-4 6.83l-50.54 13a5.63 5.63 0 0 1-6.83-4Z"/><g clip-path="url(#clip-path-2)"><path class="cls-16" transform="rotate(-59.42 33.1 182.06)" d="M-62.5 180.86h191.18v2.41H-62.5z"/><path class="cls-16" transform="rotate(-59.3 19.44 174.15)" d="M-77.1 171.9h192.79v4.01H-77.1z"/><path class="cls-16" transform="rotate(-59.43 5.48 165.74)" d="M-90.11 164.54h191.18v2.41H-90.11z"/><path class="cls-16" transform="rotate(-59.42 -8.32 157.6)" d="M-104.72 155.58H88.07v4.01h-192.79z"/><path class="cls-16" transform="rotate(-59.42 -22.13 149.43)" d="M-117.72 148.23H73.46v2.41h-191.18z"/><path class="cls-16" transform="rotate(-59.42 -35.94 141.29)" d="M-132.33 139.27H60.46v4.01h-192.79z"/><path class="cls-16" transform="rotate(-59.42 143.56 247.32)" d="M47.96 246.11h191.18v2.41H47.96z"/><path class="cls-16" transform="rotate(-59.42 129.76 239.17)" d="M33.35 237.15h192.79v4.01H33.35z"/><path class="cls-16" transform="rotate(-59.42 115.93 231)" d="M20.34 229.8h191.18v2.41H20.34z"/><path class="cls-16" transform="rotate(-59.42 102.15 222.86)" d="M5.74 220.84h192.79v4.01H5.74z"/><path class="cls-16" transform="rotate(-59.43 88.32 214.68)" d="M-7.27 213.48h191.18v2.41H-7.27z"/><path class="cls-16" transform="rotate(-59.42 74.53 206.54)" d="M-21.88 204.52h192.79v4.01H-21.88z"/><path class="cls-16" transform="rotate(-59.43 60.71 198.36)" d="M-34.88 197.17H156.3v2.41H-34.88z"/><path class="cls-16" transform="rotate(-59.42 46.92 190.22)" d="M-49.49 188.21H143.3v4.01H-49.49z"/></g><path class="cls-7" d="M35.94 238.81 7.8 129.25a5.62 5.62 0 0 1 4-6.83l50.5-13-.19-.73a5.63 5.63 0 0 0-6.83-4l-50.54 13a5.63 5.63 0 0 0-4 6.83l28.37 110.25a5.63 5.63 0 0 0 6.83 4.04Z"/><path class="cls-11" d="M28.9 215.18h60.9a6.12 6.12 0 0 1 6.12 6.12v7.55A6.11 6.11 0 0 1 89.8 235H28.9a6.12 6.12 0 0 1-6.12-6.12v-7.55a6.11 6.11 0 0 1 6.11-6.11Z" transform="rotate(-14.42 59.38 225.16)"/><path class="cls-7" d="m28.49 227.31 59-15.17a6.13 6.13 0 0 1 7.45 4.4l-1.09-4.24a6.13 6.13 0 0 0-7.44-4.39l-59 15.17a6.12 6.12 0 0 0-4.4 7.44l1.09 4.23a6.12 6.12 0 0 1 4.39-7.44Z"/><path class="cls-8" d="M62.79 234.4q-2.53-9.81-5-19.63L32.85 118 31 110.9a1 1 0 0 0-1.94.5L51 196.55l8 31.24 1.82 7.11a1 1 0 0 0 1.95-.5Z"/><path class="cls-7" transform="rotate(165.58 56.24 212.95)" d="M24.53 210.33h63.41v5.24H24.53z"/><path class="cls-8" d="M60.48 234.89a60.94 60.94 0 0 1-1.61 7.54 43.07 43.07 0 0 1-2.15 6.15 12.24 12.24 0 0 1-3.09 4.51 3.27 3.27 0 0 1-3.74.43 3.85 3.85 0 0 1-2.44-3.44 8.21 8.21 0 0 1 2.23-4.47 30.76 30.76 0 0 1 4.58-4.4 60.47 60.47 0 0 1 7.66-5.36c1.11-.64.24-2.45-.87-1.8a65.65 65.65 0 0 0-7.46 5.12 37 37 0 0 0-5.24 4.93 11.11 11.11 0 0 0-2.83 5.29c-.63 3.85 3.68 7.49 7.4 6.33 4-1.25 5.93-6.6 7.11-10.2A62.15 62.15 0 0 0 62.48 235c.19-1.26-1.81-1.38-2-.11Z"/><path class="cls-8" d="M63.1 234.22a59.32 59.32 0 0 0 5.05 5.78 41.62 41.62 0 0 0 4.85 4.39 12.29 12.29 0 0 0 4.89 2.46 3.26 3.26 0 0 0 3.48-1.43 3.87 3.87 0 0 0 .48-4.19 8.4 8.4 0 0 0-4.11-2.84 31.79 31.79 0 0 0-6.14-1.64 60.65 60.65 0 0 0-9.3-1c-1.28 0-1.39-2-.1-2a66.42 66.42 0 0 1 9 .89 37.91 37.91 0 0 1 7 1.78 11.19 11.19 0 0 1 5 3.27c2.41 3.08.39 8.34-3.43 9.13-4.15.85-8.38-2.92-11.15-5.51a61.62 61.62 0 0 1-7.21-8c-.78-1.05.91-2.12 1.69-1.09Z"/><path class="cls-3" d="M112 159.56s46.16 16.09 46.16 53.27c.04 0-35.26-4.46-46.16-53.27Z"/><path class="cls-9" d="M117.2 161.69a64.9 64.9 0 0 0-5.16-2.13c10.86 48.81 46.16 53.27 46.16 53.27 0-1.09 0-2.16-.12-3.22-9.31-2.8-31.57-13.01-40.88-47.92Z"/><path class="cls-3" d="M109.92 146.73s46.82-14.08 68.65 16c0 .01-31.19 17.13-68.65-16Z"/><path class="cls-9" d="M115.35 145.43c-3.4.69-5.43 1.3-5.43 1.3 37.46 33.13 68.65 16 68.65 16-.64-.88-1.3-1.72-2-2.53-9.17 3.21-33.18 8.02-61.22-14.77Z"/><path class="cls-3" d="M100.87 153.06s24.71 42.19.61 70.5c0 0-23.99-26.29-.61-70.5Z"/><path class="cls-9" d="M103.41 158c-1.47-3.15-2.54-5-2.54-5-23.38 44.21.61 70.5.61 70.5.71-.83 1.37-1.68 2-2.53-5.29-8.11-15.61-30.31-.07-62.97Z"/><path class="cls-3" d="M86.07 109.58s48.2-8.19 66.15 24.37c0 .05-33.07 13.14-66.15-24.37Z"/><path class="cls-9" d="M91.62 109c-3.46.27-5.55.62-5.55.62 33.08 37.47 66.15 24.38 66.15 24.38-.53-1-1.08-1.87-1.66-2.76-9.51 2-33.93 3.76-58.94-22.24Z"/><path class="cls-3" d="M78.9 113.89s19.32 44.91-8.09 70c0 .03-20.56-29.02 8.09-70Z"/><path class="cls-9" d="M80.81 119.13a65.05 65.05 0 0 0-1.91-5.24c-28.65 41-8.09 70-8.09 70 .8-.74 1.56-1.5 2.29-2.27-4.23-8.73-11.74-32.03 7.71-62.49Z"/><path class="cls-3" d="M67.38 74.51s46.82-14.08 68.66 16c-.04.02-31.2 17.14-68.66-16Z"/><path class="cls-9" d="M72.82 73.21c-3.41.69-5.44 1.3-5.44 1.3 37.46 33.14 68.66 16 68.66 16a39.04 39.04 0 0 0-2-2.53c-9.18 3.22-33.19 8.02-61.22-14.77Z"/><path class="cls-3" d="M61.41 80.39S79 126 50.65 150.06c0 0-19.43-29.81 10.76-69.67Z"/><path class="cls-9" d="M63.13 85.71c-1-3.34-1.72-5.32-1.72-5.32-30.19 39.86-10.76 69.67-10.76 69.67.83-.7 1.62-1.43 2.37-2.17-3.89-8.89-10.5-32.49 10.11-62.18Z"/><path class="cls-3" d="M54.63 43.45s44.66-8 61.62 22c0 .02-30.57 12.55-61.62-22Z"/><path class="cls-9" d="M59.78 42.82c-3.22.28-5.15.63-5.15.63 31.05 34.51 61.62 22 61.62 22-.5-.89-1-1.73-1.56-2.55-8.81 2-31.46 3.9-54.91-20.08Z"/><path class="cls-3" d="M47.86 45.55s13 42.33-14.18 62.25c0 0-15.68-28.17 14.18-62.25Z"/><path class="cls-9" d="M49.06 50.46c-.64-3.07-1.2-4.91-1.2-4.91C18 79.63 33.68 107.8 33.68 107.8c.8-.59 1.56-1.19 2.28-1.81C33 97.68 28.56 76 49.06 50.46Z"/><path class="cls-6" d="M40.34 20.68a463.7 463.7 0 0 0 4.85 12.54q1.44 3.59 2.91 7.15a157.22 157.22 0 0 0-5.6 27.21 62.84 62.84 0 0 0-.39 10.71c.09 1.38 2.25 1.39 2.17 0a80.21 80.21 0 0 1 1.63-19.05c1-5.26 2.15-10.47 3.54-15.63q4.41 10.61 9.1 21.07c1 2.26 2.06 4.51 3.09 6.76a217.92 217.92 0 0 0-3.84 26.79c-.35 4.16-.56 8.34-.57 12.51a1.09 1.09 0 0 0 2.17 0 196.33 196.33 0 0 1 3.79-35.93q7.32 15.73 15.42 31.08l.27.5A333.06 333.06 0 0 0 75 138.16a67.66 67.66 0 0 0-.12 9.76c.11 1.38 2.28 1.4 2.17 0-.51-6.29.27-12.75 1-19s1.5-12.36 2.43-18.52c0-.28.09-.56.14-.85a433.6 433.6 0 0 0 20.57 34.61c-.36 10.81-.3 21.64 0 32.45 0 1.39 2.21 1.39 2.17 0-.28-9.77-.34-19.56-.09-29.33l.44.65C112 160 121.1 171.85 132 181.76a91.22 91.22 0 0 0 3.63 3.16c1.06.89 2.6-.63 1.53-1.53-11-9.17-20.2-20.46-28.49-32.1a343.82 343.82 0 0 1-3.49-5c10.69 4.46 22.17 7.87 33.75 8.37.76 0 1.51.06 2.27 0 1.39-.06 1.4-2.23 0-2.17a42.32 42.32 0 0 1-6.56-.38 97.31 97.31 0 0 1-17.6-3.84A131.54 131.54 0 0 1 103 143a435.71 435.71 0 0 1-20.11-33.76 82.47 82.47 0 0 0 32.21 10.22c.93.11 1.87.2 2.8.24 1.4.07 1.39-2.1 0-2.17a58.67 58.67 0 0 1-7.7-1 85.54 85.54 0 0 1-18-5.14 68.06 68.06 0 0 1-11.39-6Q72.68 90.1 65.35 74.33a68 68 0 0 0 13.06 5.59 150.81 150.81 0 0 0 15 4.12c1 .23 2.07.45 3.11.65 1.36.26 2-1.83.58-2.09a119.52 119.52 0 0 1-25.43-7.52 43.32 43.32 0 0 1-8.09-4.46l-1.11-2.41q-5.66-12.39-10.9-25a91.11 91.11 0 0 0 13.09 6.59c4.79 2 9.67 3.87 14.6 5.52l3 1c1.34.41 1.91-1.68.58-2.09a155.16 155.16 0 0 1-24.63-9.78 59.27 59.27 0 0 1-8.11-4.84c-.56-1.36-1.13-2.72-1.68-4.09-2.05-5.05-4-10.13-5.94-15.22a1.8 1.8 0 0 1-.08-.21c-.4-1.29-2.55-.73-2.06.59ZM136.1 41.61A96.34 96.34 0 0 1 166.85 54a166.69 166.69 0 0 0 3.79 27.17 25.7 25.7 0 0 0 2.61 7.27 1.15 1.15 0 0 0 2-1.16 22 22 0 0 1-2.18-5.94 91.98 91.98 0 0 1-1.72-8.53 263.73 263.73 0 0 1-2-16c0-.41-.07-.81-.1-1.21a94.14 94.14 0 0 1 8.33 6.2 113.6 113.6 0 0 1 14.56 14.7c-.25.55-.43 1.14-.59 1.54a51.31 51.31 0 0 0-2.18 6.4 52.34 52.34 0 0 0-.88 24.47c.31 1.44 2.52.83 2.21-.61a49.46 49.46 0 0 1 .6-22.15 46.61 46.61 0 0 1 2.5-7.6A141 141 0 0 1 205 95c1.3 2.23 2.54 4.5 3.73 6.78a287.59 287.59 0 0 0-4.35 30.33c-.12 1.47 2.18 1.47 2.3 0a270.43 270.43 0 0 1 3.75-27 195.55 195.55 0 0 1 9.79 23.58 175.6 175.6 0 0 1-4.46 31.94c-.34 1.43 1.88 2 2.21.61a182 182 0 0 0 4.18-26.73 240.72 240.72 0 0 1 6.79 27.1c.61 3.24 1.16 6.49 1.61 9.75l.12.84a.46.46 0 0 0 0 .1l.06.43c0 .45.11.89.16 1.33s.12 1 .17 1.56v.2c.13 1.46 2.43 1.48 2.29 0-.37-4.06-1-8.1-1.75-12.11a237.46 237.46 0 0 0-7.08-29.17c-.39-1.27-.81-2.54-1.23-3.81a66.28 66.28 0 0 1 23.12 20.91c.5.71 1 1.43 1.43 2.17a1.15 1.15 0 0 0 2-1.16 55.19 55.19 0 0 0-4.59-6.36 73.06 73.06 0 0 0-12.74-12.42 56.86 56.86 0 0 0-10.24-6.22A198.35 198.35 0 0 0 212 103.07a59.89 59.89 0 0 1 17 6.54 99.78 99.78 0 0 1 13.19 8.69c.81.63 1.61 1.27 2.39 1.94 1.11 1 2.74-.65 1.62-1.62a88.15 88.15 0 0 0-24.2-14.89 49.58 49.58 0 0 0-11.32-3.21c-.47-.91-.94-1.82-1.44-2.72a146 146 0 0 0-13.42-20.38c6.52-.13 13 1.76 19 4.19a96.86 96.86 0 0 1 15.59 8.18c1 .63 2 1.27 2.91 2 1.2.86 2.35-1.13 1.16-2a89.39 89.39 0 0 0-22.56-11.69 54.94 54.94 0 0 0-9.33-2.43 40.34 40.34 0 0 0-4.78-.5h-3.76A117.89 117.89 0 0 0 183 63.5a103.19 103.19 0 0 0-11.64-9.23 121.8 121.8 0 0 1 18.51.82c5.68.61 11.34 1.48 17 2.56 1.08.21 2.16.42 3.23.66 1.44.31 2-1.9.61-2.22A182.53 182.53 0 0 0 180.35 52a91.68 91.68 0 0 0-12.18.15 96.62 96.62 0 0 0-25.4-11.29c-2-.56-4-1-6.06-1.49-1.44-.28-2.06 1.94-.61 2.24Z"/><path class="cls-11" d="M241.6 172.07a9.25 9.25 0 1 0-5.6 11.82 9.25 9.25 0 0 0 5.6-11.82Z"/><path class="cls-12" d="M241.12 179.37a9.65 9.65 0 0 0-.31-1.14 9.24 9.24 0 0 0-17-1.09 9.25 9.25 0 1 1 17.27 2.23Z"/><path class="cls-13" d="M230.62 179.53a2.28 2.28 0 1 1 .17 3.22 2.28 2.28 0 0 1-.17-3.22Z"/><path class="cls-11" d="M222.79 160a7.69 7.69 0 1 0-4.66 9.82 7.69 7.69 0 0 0 4.66-9.82Z"/><path class="cls-12" d="M222.39 166.07a8.23 8.23 0 0 0-.26-.94 7.68 7.68 0 0 0-14.09-.91 7.68 7.68 0 1 1 14.35 1.85Z"/><path class="cls-13" d="M213.66 166.2a1.9 1.9 0 1 1 .15 2.68 1.9 1.9 0 0 1-.15-2.68Z"/><path class="cls-11" d="M252.89 148.94A6.58 6.58 0 1 0 255 158a6.59 6.59 0 0 0-2.11-9.06Z"/><path class="cls-12" d="M255.86 153.22c-.22-.17-.44-.34-.68-.49a6.58 6.58 0 0 0-9.07 2.11 6.51 6.51 0 0 0-.86 4.79 6.58 6.58 0 1 1 10.61-6.41Z"/><path class="cls-13" d="M250.08 158a1.62 1.62 0 1 1 1.52 1.72 1.61 1.61 0 0 1-1.52-1.72Z"/><path class="cls-11" d="M246.47 111.51a9.25 9.25 0 1 0 8.45 10 9.26 9.26 0 0 0-8.45-10Z"/><path class="cls-12" d="M252.92 115a8.91 8.91 0 0 0-1.17-.18 9.24 9.24 0 0 0-8 15 9.25 9.25 0 1 1 9.17-14.82Z"/><path class="cls-13" d="M248.73 124.59a2.28 2.28 0 1 1 3 1.18 2.26 2.26 0 0 1-3-1.18Z"/><path class="cls-11" d="M211.78 130.49a7.15 7.15 0 1 0-4.34 9.14 7.16 7.16 0 0 0 4.34-9.14Z"/><path class="cls-12" d="M211.41 136.14a6.78 6.78 0 0 0-.25-.88 7.15 7.15 0 0 0-13.11-.85 7.15 7.15 0 1 1 13.36 1.73Z"/><path class="cls-13" d="M203.29 136.26a1.76 1.76 0 0 1 2.49-.14 1.77 1.77 0 0 1-2.36 2.63 1.75 1.75 0 0 1-.13-2.49Z"/><path class="cls-11" d="M195.91 101.39a8.94 8.94 0 1 0-1.06 12.6 8.93 8.93 0 0 0 1.06-12.6Z"/><path class="cls-12" d="M198 108.16a8.39 8.39 0 0 0-.67-.93 8.94 8.94 0 0 0-15.76 4.77 8.94 8.94 0 1 1 16.43-3.84Z"/><path class="cls-13" d="M188.51 111.87a2.21 2.21 0 1 1 1.25 2.86 2.21 2.21 0 0 1-1.25-2.86Z"/><path class="cls-11" d="M178.51 81.65a7.16 7.16 0 1 0 .28 10.11 7.17 7.17 0 0 0-.28-10.11Z"/><path class="cls-12" d="M180.74 86.85a6.56 6.56 0 0 0-.62-.67 7.14 7.14 0 0 0-12.06 5.19 7.15 7.15 0 1 1 12.68-4.52Z"/><path class="cls-13" d="M173.56 90.65a1.76 1.76 0 1 1 1.25 2.15 1.76 1.76 0 0 1-1.25-2.15Z"/><path class="cls-11" d="M235.47 83.14a6.59 6.59 0 1 0 4.53 8.11 6.59 6.59 0 0 0-4.53-8.11Z"/><path class="cls-12" d="M239.52 86.41a9.4 9.4 0 0 0-.8-.28 6.58 6.58 0 0 0-7.58 9.42 6.58 6.58 0 1 1 8.38-9.14Z"/><path class="cls-13" d="M235.3 92.59a1.63 1.63 0 1 1 1.95 1.22 1.63 1.63 0 0 1-1.95-1.22Z"/><circle class="cls-11" cx="207.86" cy="56.38" r="9.25" transform="rotate(-78.78 207.87 56.38)"/><path class="cls-12" d="M215.08 50.61a8.76 8.76 0 0 0-1.16-.18 9.24 9.24 0 0 0-8 15 9.25 9.25 0 1 1 9.16-14.81Z"/><path class="cls-13" d="M210.89 60.24a2.28 2.28 0 1 1 3 1.17 2.3 2.3 0 0 1-3-1.17Z"/><path class="cls-8" d="M269.33 79.69a5.8 5.8 0 0 1 6.86-4.48l60.74 12.72a5.8 5.8 0 0 1 4.48 6.85l-9.78 46.71a5.8 5.8 0 0 1-6.86 4.48L264 133.26a5.81 5.81 0 0 1-4.48-6.86Z"/><g clip-path="url(#clip-path-3)"><path class="cls-16" d="M337.31 141.33a3.27 3.27 0 1 1 2.53 3.87 3.27 3.27 0 0 1-2.53-3.87ZM324.72 138.69a3.27 3.27 0 1 1 2.53 3.87 3.27 3.27 0 0 1-2.53-3.87ZM312.14 136.06a3.26 3.26 0 1 1 2.53 3.87 3.26 3.26 0 0 1-2.53-3.87ZM299.55 133.42a3.27 3.27 0 1 1 2.53 3.87 3.27 3.27 0 0 1-2.53-3.87ZM287 130.79a3.27 3.27 0 1 1 2.53 3.87 3.27 3.27 0 0 1-2.53-3.87ZM274.38 128.15a3.27 3.27 0 1 1 2.53 3.87 3.27 3.27 0 0 1-2.53-3.87ZM261.79 125.52a3.27 3.27 0 1 1 2.53 3.87 3.27 3.27 0 0 1-2.53-3.87ZM249.21 122.88a3.27 3.27 0 1 1 2.53 3.87 3.27 3.27 0 0 1-2.53-3.87ZM328.38 152.6a3.27 3.27 0 1 1 2.53 3.87 3.27 3.27 0 0 1-2.53-3.87ZM315.79 150a3.27 3.27 0 1 1 2.53 3.87 3.27 3.27 0 0 1-2.53-3.87ZM303.21 147.33a3.27 3.27 0 1 1 2.53 3.86 3.27 3.27 0 0 1-2.53-3.86ZM290.62 144.69a3.27 3.27 0 1 1 2.53 3.87 3.27 3.27 0 0 1-2.53-3.87ZM278 142.06a3.27 3.27 0 1 1 2.53 3.86 3.27 3.27 0 0 1-2.53-3.86ZM265.45 139.42a3.27 3.27 0 1 1 2.53 3.87 3.27 3.27 0 0 1-2.53-3.87ZM252.87 136.78a3.26 3.26 0 1 1 2.53 3.87 3.27 3.27 0 0 1-2.53-3.87ZM240.28 134.15a3.27 3.27 0 1 1 2.53 3.87 3.27 3.27 0 0 1-2.53-3.87ZM342.58 116.16a3.27 3.27 0 1 1 2.53 3.87 3.27 3.27 0 0 1-2.53-3.87ZM330 113.52a3.27 3.27 0 1 1 2.53 3.87 3.27 3.27 0 0 1-2.53-3.87ZM317.41 110.89a3.26 3.26 0 1 1 2.53 3.87 3.27 3.27 0 0 1-2.53-3.87ZM304.82 108.25a3.27 3.27 0 1 1 2.53 3.87 3.27 3.27 0 0 1-2.53-3.87ZM292.24 105.62a3.26 3.26 0 1 1 2.52 3.87 3.26 3.26 0 0 1-2.52-3.87ZM279.65 103a3.27 3.27 0 1 1 2.53 3.87 3.27 3.27 0 0 1-2.53-3.87ZM267.06 100.35a3.27 3.27 0 1 1 2.53 3.87 3.27 3.27 0 0 1-2.53-3.87ZM254.48 97.71a3.27 3.27 0 1 1 2.53 3.87 3.27 3.27 0 0 1-2.53-3.87ZM333.65 127.42a3.27 3.27 0 1 1 2.53 3.87 3.27 3.27 0 0 1-2.53-3.87ZM321.06 124.79a3.27 3.27 0 1 1 2.53 3.87 3.27 3.27 0 0 1-2.53-3.87ZM308.48 122.15A3.27 3.27 0 1 1 311 126a3.27 3.27 0 0 1-2.52-3.85ZM295.89 119.52a3.27 3.27 0 1 1 2.53 3.87 3.27 3.27 0 0 1-2.53-3.87ZM283.31 116.88a3.27 3.27 0 1 1 2.53 3.87 3.27 3.27 0 0 1-2.53-3.87ZM270.72 114.25a3.27 3.27 0 1 1 2.53 3.87 3.27 3.27 0 0 1-2.53-3.87ZM258.14 111.61a3.26 3.26 0 1 1 2.53 3.87 3.27 3.27 0 0 1-2.53-3.87ZM245.55 109a3.27 3.27 0 1 1 2.53 3.87 3.27 3.27 0 0 1-2.53-3.87ZM347.85 91a3.27 3.27 0 1 1 2.53 3.87 3.27 3.27 0 0 1-2.53-3.87ZM335.26 88.35a3.27 3.27 0 1 1 2.53 3.87 3.27 3.27 0 0 1-2.53-3.87ZM322.68 85.72a3.27 3.27 0 1 1 2.53 3.86 3.27 3.27 0 0 1-2.53-3.86ZM310.09 83.08a3.27 3.27 0 1 1 2.53 3.92 3.27 3.27 0 0 1-2.53-3.92ZM297.51 80.45a3.26 3.26 0 1 1 2.49 3.86 3.27 3.27 0 0 1-2.49-3.86ZM284.92 77.81a3.27 3.27 0 1 1 2.53 3.87 3.27 3.27 0 0 1-2.53-3.87ZM272.33 75.17a3.27 3.27 0 1 1 2.53 3.83 3.28 3.28 0 0 1-2.53-3.83ZM259.75 72.54a3.27 3.27 0 1 1 2.53 3.87 3.27 3.27 0 0 1-2.53-3.87ZM338.92 102.25a3.27 3.27 0 1 1 2.53 3.87 3.28 3.28 0 0 1-2.53-3.87ZM326.33 99.62a3.27 3.27 0 1 1 2.53 3.87 3.27 3.27 0 0 1-2.53-3.87ZM313.75 97a3.27 3.27 0 1 1 2.53 3.87 3.27 3.27 0 0 1-2.53-3.87ZM301.16 94.35a3.27 3.27 0 1 1 2.53 3.87 3.27 3.27 0 0 1-2.53-3.87ZM288.58 91.71a3.27 3.27 0 1 1 2.53 3.87 3.27 3.27 0 0 1-2.53-3.87ZM276 89.08a3.27 3.27 0 1 1 2.52 3.92 3.27 3.27 0 0 1-2.52-3.92ZM263.41 86.44a3.27 3.27 0 1 1 2.53 3.87 3.27 3.27 0 0 1-2.53-3.87ZM250.82 83.81a3.27 3.27 0 1 1 2.53 3.87 3.27 3.27 0 0 1-2.53-3.87ZM353.12 65.82a3.27 3.27 0 1 1 2.53 3.86 3.27 3.27 0 0 1-2.53-3.86ZM340.53 63.18a3.27 3.27 0 1 1 2.53 3.87 3.27 3.27 0 0 1-2.53-3.87ZM328 60.55a3.27 3.27 0 1 1 2.53 3.86 3.27 3.27 0 0 1-2.53-3.86ZM315.36 57.91a3.27 3.27 0 1 1 2.53 3.87 3.27 3.27 0 0 1-2.53-3.87ZM302.78 55.27a3.26 3.26 0 1 1 2.53 3.87 3.27 3.27 0 0 1-2.53-3.87ZM290.19 52.64a3.27 3.27 0 1 1 2.53 3.87 3.27 3.27 0 0 1-2.53-3.87ZM277.61 50a3.26 3.26 0 1 1 2.52 3.87 3.28 3.28 0 0 1-2.52-3.87ZM265 47.37a3.27 3.27 0 1 1 2.53 3.87 3.27 3.27 0 0 1-2.53-3.87ZM344.19 77.08a3.27 3.27 0 1 1 2.53 3.92 3.27 3.27 0 0 1-2.53-3.92ZM331.6 74.45a3.27 3.27 0 1 1 2.53 3.87 3.27 3.27 0 0 1-2.53-3.87ZM319 71.81a3.27 3.27 0 1 1 2.53 3.87 3.27 3.27 0 0 1-2.53-3.87ZM306.43 69.18a3.27 3.27 0 1 1 2.57 3.87 3.27 3.27 0 0 1-2.57-3.87ZM293.85 66.54a3.27 3.27 0 1 1 2.53 3.87 3.27 3.27 0 0 1-2.53-3.87ZM281.26 63.91a3.27 3.27 0 1 1 2.53 3.87 3.27 3.27 0 0 1-2.53-3.87ZM268.68 61.27a3.27 3.27 0 1 1 2.53 3.87 3.27 3.27 0 0 1-2.53-3.87ZM256.09 58.64a3.27 3.27 0 1 1 2.53 3.87 3.27 3.27 0 0 1-2.53-3.87Z"/></g><path class="cls-7" d="m264 133.26 9.62-45.93a5.82 5.82 0 0 1 6.86-4.49l60.7 12.71.16-.77a5.8 5.8 0 0 0-4.48-6.85l-60.67-12.72a5.8 5.8 0 0 0-6.86 4.48l-9.78 46.71a5.81 5.81 0 0 0 4.45 6.86Z"/><path class="cls-3" d="M255.83 119.67a6.33 6.33 0 0 1 7.48-4.88l69.54 14.56a6.32 6.32 0 0 1 4.88 7.47l-1.59 7.63a6.35 6.35 0 0 1-7.48 4.89l-69.54-14.56a6.33 6.33 0 0 1-4.88-7.48Z"/><path class="cls-7" d="m262.38 119.2 69.54 14.56a6.34 6.34 0 0 1 4.89 7.47l.92-4.41a6.32 6.32 0 0 0-4.88-7.47l-69.54-14.56a6.33 6.33 0 0 0-7.48 4.88l-.92 4.42a6.33 6.33 0 0 1 7.47-4.89Z"/><path class="cls-11" d="m294.9 142.27 4.29-20.48 6.83-32.59q.76-3.72 1.55-7.42a1 1 0 0 0-2-.43q-2.13 10.25-4.28 20.48l-6.83 32.6c-.52 2.47-1 4.94-1.55 7.41a1 1 0 0 0 2 .43Z"/><path class="cls-11" d="M292.59 143.39a53.4 53.4 0 0 1 1.15 6.55 36.11 36.11 0 0 1 .28 5.6 10.57 10.57 0 0 1-1 4.61 2.83 2.83 0 0 1-2.85 1.55 3.31 3.31 0 0 1-3.06-1.95 7.1 7.1 0 0 1 .33-4.29 26.4 26.4 0 0 1 2.23-5 52.4 52.4 0 0 1 4.38-6.76c.67-.87-.61-2-1.28-1.15a56.14 56.14 0 0 0-4.29 6.5 32.37 32.37 0 0 0-2.6 5.64 9.72 9.72 0 0 0-.54 5.14c.75 3.28 5.37 4.79 8 2.66 2.83-2.32 2.59-7.2 2.36-10.46a53.8 53.8 0 0 0-1.44-9.18c-.26-1.09-1.94-.54-1.67.54Z"/><path class="cls-11" d="M292.24 143a53.07 53.07 0 0 1-4.12 5.22 36.31 36.31 0 0 1-4 3.93 10.54 10.54 0 0 1-4.11 2.31 2.82 2.82 0 0 1-3.05-1.09 3.31 3.31 0 0 1-.57-3.59 7.07 7.07 0 0 1 3.42-2.61 27.33 27.33 0 0 1 5.22-1.66 52.42 52.42 0 0 1 8-1.21c1.11-.08 1.13-1.81 0-1.73a55.88 55.88 0 0 0-7.72 1.12 32.44 32.44 0 0 0-5.93 1.8 9.71 9.71 0 0 0-4.2 3c-2 2.74 0 7.2 3.31 7.72 3.6.58 7.09-2.84 9.38-5.17a54.24 54.24 0 0 0 5.9-7.19c.6-.85-.9-1.75-1.53-.85Z"/><path class="cls-11" d="M294.52 143.49a52.83 52.83 0 0 0 1.68 6.43 36.66 36.66 0 0 0 2.09 5.2 10.59 10.59 0 0 0 2.84 3.77 2.82 2.82 0 0 0 3.24.23 3.33 3.33 0 0 0 2-3.06 7.14 7.14 0 0 0-2.09-3.76 27.19 27.19 0 0 0-4.12-3.61 50.29 50.29 0 0 0-6.8-4.31c-1-.52-.31-2.11.68-1.59a55.69 55.69 0 0 1 6.61 4.12 32.42 32.42 0 0 1 4.72 4 9.71 9.71 0 0 1 2.64 4.45c.69 3.29-2.88 6.59-6.13 5.74-3.54-.92-5.36-5.45-6.52-8.51a54.2 54.2 0 0 1-2.52-8.94c-.25-1.06 1.47-1.25 1.68-.16Z"/><path class="cls-11" d="M292.51 142.08a53.09 53.09 0 0 1-6.53 1.29 36.05 36.05 0 0 1-5.59.38 10.5 10.5 0 0 1-4.63-.91 2.81 2.81 0 0 1-1.61-2.81 3.32 3.32 0 0 1 1.89-3.1 7.12 7.12 0 0 1 4.3.24 27.3 27.3 0 0 1 5.05 2.13 51.71 51.71 0 0 1 6.84 4.25c.89.65 2-.65 1.13-1.31a56.23 56.23 0 0 0-6.59-4.16 32.58 32.58 0 0 0-5.68-2.48 9.73 9.73 0 0 0-5.15-.44c-3.27.81-4.68 5.46-2.5 8 2.37 2.78 7.24 2.45 10.49 2.16a54.78 54.78 0 0 0 9.16-1.63c1.07-.27.49-1.9-.58-1.61Z"/><path class="cls-11" d="M294.34 142.47a53.08 53.08 0 0 0 5.46 3.79 35.57 35.57 0 0 0 5 2.6 10.55 10.55 0 0 0 4.61 1A2.81 2.81 0 0 0 312 148a3.33 3.33 0 0 0-.49-3.6 7.07 7.07 0 0 0-4-1.5 27 27 0 0 0-5.47-.08 52.06 52.06 0 0 0-8 1.15c-1.08.24-1.6-1.4-.52-1.65a57.4 57.4 0 0 1 7.71-1.17 32.11 32.11 0 0 1 6.2 0 9.64 9.64 0 0 1 4.89 1.66c2.67 2.06 2.1 6.88-.92 8.35-3.29 1.6-7.62-.66-10.48-2.23a54.23 54.23 0 0 1-7.73-5.17c-.9-.76.29-1.99 1.15-1.29Z"/><path class="cls-7" transform="rotate(-168.17 298.64 119.4)" d="M261.81 116.71h73.65v5.41h-73.65z"/><path class="cls-6" d="M322.43 115.58s17.46-12.37 54.54 2c-25.57-30.45-19.5-51-19.5-51-26.58-6.71-46.4-33.19-46.4-33.19-26.5 8.52-60-5.9-60-5.9s24.49 27.07 25 54.9c-.07.01 31.42 10.21 46.36 33.19Z"/><path class="cls-3" d="M285.7 78.35a52 52 0 0 0-.6-9.85 49.51 49.51 0 0 0-6.71-19.5c-.22-.36-.45-.7-.68-1.05l9.93 7.11c12.9 9.27 23.8 23.11 25.19 37.65a18 18 0 0 1 .11 2.83c-.09 1.54 2.49 2 2.58.42a30 30 0 0 0-1.26-9.13 54.18 54.18 0 0 0-10.88-20.43 2 2 0 0 0-.19-.22l19 13.56c5.28 3.84 8.91 9.57 11.79 15a73.12 73.12 0 0 1 4.22 9.4c.54 1.53 3 1.34 2.5-.21a75.46 75.46 0 0 0-4.61-10.3 70.28 70.28 0 0 0-4.24-7l21.79 15.59c4.28 3.06 8.5 6.29 12.88 9.21l.18.13a1.16 1.16 0 1 0 1.34-1.87l-10.61-7.58-24.27-17.29a68.91 68.91 0 0 0 8 1.74 75.41 75.41 0 0 0 11.25 1c1.63 0 1-2.41-.61-2.43a72.39 72.39 0 0 1-10.27-1c-6.09-1-12.69-2.55-18-6.3q-9.6-6.89-19.22-13.75c9.7 3.79 19.94 5.26 29.48 3.08a19.15 19.15 0 0 0 2.94-.86c1.43-.58.21-2.88-1.22-2.3a26.47 26.47 0 0 1-8.15 1.61 51 51 0 0 1-21.82-3.46 74 74 0 0 1-16.53-9l-9.92-7.1c9.45 2.54 19.54 1.38 28-1.15a35.5 35.5 0 0 0 3.3-1.11c1.43-.58.21-2.88-1.22-2.3a48.14 48.14 0 0 1-8.7 2.51 48.42 48.42 0 0 1-19.57.16 32.46 32.46 0 0 1-10.67-4.4c-2.75-2-5.5-4-8.32-5.9l-.18-.13a1.16 1.16 0 1 0-1.34 1.87l7.39 5.28C279 49 282.72 63.06 283.12 74.75c0 1.07.06 2.14 0 3.19-.12 1.54 2.49 1.95 2.58.41Z"/><path class="cls-7" d="M322.43 115.58s17.46-12.37 54.54 2a117.32 117.32 0 0 1-7.3-9.64c-29.21-8-43.06 1.82-43.06 1.82-14.94-23-46.4-33.19-46.4-33.19-.32-17.46-10.07-34.61-17.3-45A111.19 111.19 0 0 1 251 27.5s24.49 27.07 25 54.9c0 0 31.49 10.2 46.43 33.18Z"/><path class="cls-6" d="M291.57 32.2a96.26 96.26 0 0 1 33.06 2.67 167.19 167.19 0 0 0 11.74 24.79 25.81 25.81 0 0 0 4.63 6.16c1.1 1 2.65-.72 1.54-1.7a22 22 0 0 1-3.86-5 90.7 90.7 0 0 1-4.19-7.63 225.8 225.8 0 0 1-7.11-15.84 98.07 98.07 0 0 1 9.8 3.43 113.47 113.47 0 0 1 18.3 9.68c-.08.59-.07 1.22-.11 1.64a50.87 50.87 0 0 0-.16 6.76 52.26 52.26 0 0 0 6.47 23.62c.73 1.28 2.65 0 1.93-1.25a49.49 49.49 0 0 1-6.06-21.32 47.4 47.4 0 0 1 .12-8 142.28 142.28 0 0 1 15.63 12.31c1.91 1.74 3.76 3.53 5.59 5.36a280.92 280.92 0 0 0 4.92 30.24c.32 1.44 2.51.75 2.19-.69a265 265 0 0 1-4.49-26.89 197.81 197.81 0 0 1 16.39 19.58 175.78 175.78 0 0 1 5.29 31.81c.1 1.47 2.4 1.39 2.29-.08a181.05 181.05 0 0 0-4-26.75 239.85 239.85 0 0 1 14.58 23.83c1.56 2.91 3.05 5.84 4.46 8.82l.37.77v.09l.18.4.56 1.22.63 1.43c0 .07.05.13.08.19.57 1.35 2.76.68 2.19-.68a137.36 137.36 0 0 0-5.29-11 238.46 238.46 0 0 0-15.47-25.72c-.76-1.1-1.54-2.19-2.32-3.27a66.42 66.42 0 0 1 28.32 13c.68.52 1.36 1.06 2 1.63a1.14 1.14 0 0 0 1.54-1.69 54.33 54.33 0 0 0-6.28-4.7 73.34 73.34 0 0 0-15.87-8 57.49 57.49 0 0 0-11.63-2.87 200.28 200.28 0 0 0-17.19-20.38 59.74 59.74 0 0 1 18.18 1.16 100 100 0 0 1 15.18 4.35c1 .36 1.92.73 2.86 1.14 1.35.59 2.42-1.44 1.06-2a88.06 88.06 0 0 0-27.55-7 49.16 49.16 0 0 0-11.75.32c-.73-.72-1.45-1.45-2.19-2.16a146.69 146.69 0 0 0-18.9-15.44c6.18-2.07 12.92-2.21 19.37-1.67A97 97 0 0 1 396 50c1.13.31 2.26.63 3.37 1 1.41.46 1.9-1.78.51-2.24a89.55 89.55 0 0 0-25-4.42 54.35 54.35 0 0 0-9.63.48 41.31 41.31 0 0 0-4.71.94c-.74.2-1.47.42-2.19.67-.4.14-.92.29-1.4.48a116.82 116.82 0 0 0-14-7.83A103.7 103.7 0 0 0 329 33.73 123.07 123.07 0 0 1 346.93 29q8.42-1.65 17-2.62c1.09-.12 2.18-.24 3.27-.34 1.47-.13 1.4-2.42-.08-2.29a182.21 182.21 0 0 0-30.16 5.19 92.79 92.79 0 0 0-11.59 3.78 97 97 0 0 0-27.6-3.18q-3.12.1-6.24.4c-1.53.06-1.43 2.4.04 2.26Z"/><path class="cls-11" d="M431.25 125.15a9.25 9.25 0 1 0-1.82 13 9.26 9.26 0 0 0 1.82-13Z"/><path class="cls-12" d="M433 132.26a9 9 0 0 0-.65-1 9.24 9.24 0 0 0-16.5 4 9.25 9.25 0 1 1 17.15-3Z"/><path class="cls-13" d="M423 135.55a2.28 2.28 0 1 1 1.13 3 2.28 2.28 0 0 1-1.13-3Z"/><path class="cls-11" d="M409.7 119.26a7.69 7.69 0 1 0-1.52 10.74 7.69 7.69 0 0 0 1.52-10.74Z"/><path class="cls-12" d="M411.13 125.17c-.16-.28-.34-.56-.53-.83a7.69 7.69 0 0 0-13.72 3.35 7.69 7.69 0 1 1 14.25-2.52Z"/><path class="cls-13" d="M402.84 127.9a1.9 1.9 0 1 1 .94 2.52 1.89 1.89 0 0 1-.94-2.52Z"/><path class="cls-11" d="M435.11 99.71a6.59 6.59 0 1 0 4.73 8 6.57 6.57 0 0 0-4.73-8Z"/><path class="cls-12" d="M439.22 102.9a6.83 6.83 0 0 0-.8-.27 6.58 6.58 0 0 0-7.4 9.56 6.58 6.58 0 1 1 8.2-9.29Z"/><path class="cls-13" d="M435.12 109.15a1.63 1.63 0 1 1 2 1.19 1.62 1.62 0 0 1-2-1.19Z"/><path class="cls-11" d="M417.79 65.9a9.26 9.26 0 1 0 11 7 9.27 9.27 0 0 0-11-7Z"/><path class="cls-12" d="M425 67.27a9.46 9.46 0 0 0-1.17.18 9.24 9.24 0 0 0-3.15 16.69A9.25 9.25 0 1 1 425 67.27Z"/><path class="cls-13" d="M423.86 77.72a2.28 2.28 0 1 1 3.22.22 2.28 2.28 0 0 1-3.22-.22Z"/><path class="cls-11" d="M390.36 94.39a7.15 7.15 0 1 0-1.41 10 7.15 7.15 0 0 0 1.41-10Z"/><path class="cls-12" d="M391.7 99.88a7.15 7.15 0 0 0-13.26 2.35 7.15 7.15 0 1 1 13.26-2.35Z"/><path class="cls-13" d="M384 102.43a1.76 1.76 0 1 1 .88 2.34 1.76 1.76 0 0 1-.88-2.34Z"/><path class="cls-11" d="M366.52 71.36a8.94 8.94 0 1 0 2.76 12.35 8.94 8.94 0 0 0-2.76-12.35Z"/><path class="cls-12" d="M370.5 77.21a6.83 6.83 0 0 0-.92-.68A8.94 8.94 0 0 0 356 85.78a8.94 8.94 0 1 1 14.49-8.57Z"/><path class="cls-13" d="M362.59 83.58a2.21 2.21 0 1 1 2.05 2.35 2.2 2.2 0 0 1-2.05-2.35Z"/><path class="cls-11" d="M344 57.73a7.15 7.15 0 1 0 3.29 9.57 7.15 7.15 0 0 0-3.29-9.57Z"/><path class="cls-12" d="M347.69 62a8.61 8.61 0 0 0-.79-.46 7.15 7.15 0 0 0-9.56 3.3 7.08 7.08 0 0 0-.39 5.27A7.15 7.15 0 1 1 347.69 62Z"/><path class="cls-13" d="M342 67.79a1.76 1.76 0 1 1 1.84 1.69 1.76 1.76 0 0 1-1.84-1.69Z"/><path class="cls-11" d="M398.81 42.12a6.59 6.59 0 1 0 6.8 6.37 6.6 6.6 0 0 0-6.8-6.37Z"/><path class="cls-12" d="M403.66 44a7.86 7.86 0 0 0-.84 0 6.58 6.58 0 0 0-4.42 11.26A6.59 6.59 0 1 1 403.66 44Z"/><path class="cls-13" d="M401.48 51.19a1.63 1.63 0 1 1 2.23.58 1.63 1.63 0 0 1-2.23-.58Z"/><path class="cls-11" d="M362.45 15.8a9.25 9.25 0 1 0 11.05 7 9.26 9.26 0 0 0-11.05-7Z"/><path class="cls-12" d="M369.64 17.17a9.43 9.43 0 0 0-1.17.17A9.25 9.25 0 0 0 365.32 34a9.25 9.25 0 1 1 4.32-16.87Z"/><path class="cls-13" d="M368.52 27.61a2.28 2.28 0 1 1 3.22.22 2.28 2.28 0 0 1-3.22-.22Z"/><path class="cls-10" d="m201.92 196.26-9.06-11-14.51-17.72-.66-.8.29 1.62 7.55 12.56 12.27 20.4q1.39 2.34 2.81 4.68c.74 1.23-1.23 2.27-2 1L191 194.27l-12.13-20.17c.18 1.21.34 2.42.5 3.63q6.06 15.34 12.14 30.67l1.69 4.29c.53 1.32-1.66 1.83-2.18.52l-10.66-26.91q1 9.33 1.41 18.69.19 4.22.28 8.43c0 1.4-2.24 1.36-2.27 0q-.28-14.11-1.8-28.18l-4.8 23.87-.89 4.43c-.3 1.48-2.46.75-2.19-.62l6.19-30.77.83-4.1c-.2-1.51-.41-3-.63-4.51l-2.94 8.91q-3.55 10.72-7.05 21.45c-.54 1.65-1.09 3.31-1.63 5-.44 1.32-2.63.71-2.19-.62q2.2-6.74 4.42-13.45l7.07-21.47 1.56-4.75-.39-2.28-4.18 8.51-9 18.27-2.07 4.22c-.62 1.26-2.56.1-2-1.15q2.84-5.76 5.66-11.53 4.48-9.13 9-18.27l1.86-3.78c-.24-1.29-.48-2.58-.75-3.86l-5.19 8.51-10.63 17.39-2.45 4c-.73 1.19-2.69 0-1.95-1.16l6.7-11L171 159.12l2.22-3.63c-.2-.92-.38-1.85-.59-2.76l-.35-1.5-5.92 8.43-11.84 16.84-2.74 3.9c-.8 1.14-2.76 0-1.95-1.16l7.42-10.55 11.84-16.85 2.49-3.54q-.6-2.46-1.26-4.9l-6.43 8.48-12.55 16.52-2.91 3.84c-.84 1.11-2.8 0-2-1.15l7.91-10.42 12.54-16.53 2.66-3.49q-.79-2.88-1.67-5.74l-6.31 8.48-12.3 16.52-2.84 3.82c-.84 1.12-2.8 0-1.95-1.16l7.7-10.35 12.3-16.52 2.57-3.44q-.66-2.08-1.35-4.17L148.14 151l-2.64 3.43c-.85 1.1-2.81 0-1.95-1.16l19-24.66 2.35-3c-.72-2.07-1.47-4.12-2.24-6.17l-16.77 23-2.57 3.53c-.85 1.18-2.79 0-1.95-1.16l18-24.74 2.28-3.11c-.65-1.65-1.31-3.28-2-4.91l-15.6 22.43-2.39 3.44c-.8 1.15-2.76 0-1.95-1.15l16.8-24.17 2.09-3c-.32-.75-.63-1.49-1-2.23s-.66-1.43-1-2.14l-13.29 20.75-2 3.16c-.75 1.18-2.71 0-1.95-1.16q7.22-11.25 14.41-22.5l1.72-2.68c-.61-1.28-1.23-2.55-1.86-3.82l-12.4 19.66-1.92 3.05c-.75 1.19-2.7 0-1.95-1.15l13.46-21.36 1.6-2.54q-1.12-2.19-2.31-4.35L139.2 110l-1.73 2.81c-.74 1.19-2.69 0-1.95-1.15l12-19.44 1.4-2.27-2-3.52-9.69 14.37-1.54 2.28c-.79 1.16-2.75 0-2-1.15l10.72-15.88 1.18-1.75c-.84-1.39-1.7-2.76-2.58-4.13q-3.36 6.52-6.74 13l-1.08 2.1c-.65 1.25-2.6.09-1.95-1.15l7.59-14.7c.25-.49.5-1 .76-1.47l-1.67-2.49-1.5-2.14-5.62 12c-.59 1.27-2.54.11-1.95-1.15l6-12.93a145.29 145.29 0 0 0-12-14.41q-2.39-2.53-5-4.91c-.75-.69-1.61-1.31-2.33-2l-.1-.08c-1.14-.9.49-2.39 1.62-1.5a66.1 66.1 0 0 1 6.18 5.66 147.45 147.45 0 0 1 13.59 16.19l20.7 3.36 3 .49c1.44.23.84 2.32-.59 2.09l-21-3.41h-.28l3 4.32 21.59 4.88 3.18.71c1.43.33.83 2.42-.59 2.1l-22-5-.49-.11q1.22 1.89 2.38 3.81l26 6.69 3.83 1a1.09 1.09 0 1 1-.6 2.09l-26.46-6.81-1.2-.31 1.73 3L179.08 98l4.06 1.29a1.09 1.09 0 1 1-.6 2.09L154 92.32l-1.46-.47c.7 1.3 1.39 2.6 2.06 3.91l11.91 4.16 19.8 6.91 4.59 1.6c1.37.48.79 2.58-.59 2.1l-12.4-4.33-19.8-6.91-2.11-.73c.56 1.13 1.12 2.26 1.66 3.4l12.78 4.91 21.36 8.21 4.88 1.87c1.36.52.78 2.62-.59 2.1L182.75 114l-21.35-8.2-2.46-1c.61 1.33 1.21 2.67 1.79 4l13.27 5.4 22 8.89 5 2c1.34.54.76 2.64-.59 2.09l-13.82-5.59-22-8.89-2.69-1.09c.64 1.53 1.25 3.07 1.86 4.61l13.48 6.38 22 10.42 5.09 2.42c1.32.62.16 2.47-1.15 1.85l-13.77-6.52-22-10.42-2.5-1.19c.73 1.92 1.42 3.85 2.1 5.79l12.23 6.46 20 10.58 4.59 2.43c1.29.68.13 2.53-1.16 1.85l-12.56-6.64-20-10.58-2.05-1.05c.42 1.24.82 2.5 1.22 3.75L181 138.9l19.27 11.73 4.41 2.69a1.09 1.09 0 1 1-1.15 1.85l-12.1-7.36-19.27-11.73-1.91-1.17q.79 2.66 1.53 5.32l11.4 7.71 18.85 12.75 4.36 2.95c1.2.81.06 2.67-1.15 1.85l-11.81-8-18.83-12.73-1.94-1.31c.25.94.51 1.88.75 2.83l.39 1.65 10.53 8.64 17.1 14 3.93 3.22c1.12.92-.5 2.41-1.62 1.5L193 166.51l-17.1-14-1.3-1.06c.29 1.23.57 2.46.83 3.7l9.65 9.42 15.72 15.36 3.61 3.52c1 1-.58 2.51-1.62 1.5L193 175.3 177.24 160l-1-1 .64 3.26 8.83 10.74 14.51 17.72c1.11 1.34 2.21 2.69 3.32 4 .9 1.15-.7 2.66-1.62 1.54Z"/><path class="cls-11" d="M86 50.45a5.85 5.85 0 0 1 4.36-7l71-16.57a5.85 5.85 0 0 1 7 4.36L184 98.29a5.84 5.84 0 0 1-4.36 7l-71 16.58a5.84 5.84 0 0 1-7-4.36Z"/><g clip-path="url(#clip-path-4)"><path class="cls-19" d="m184.5 100.34-4.1-4.99-6.43.55 3.48-5.44-2.51-5.94 6.25 1.62 4.88-4.22.38 6.44 5.53 3.34-6.01 2.36-1.47 6.28zM154.1 107.44l-4.09-4.99-6.43.55 3.47-5.44-2.51-5.95 6.25 1.63 4.88-4.22.39 6.44 5.52 3.34-6.01 2.35-1.47 6.29zM123.71 114.53l-4.1-4.98-6.43.54 3.48-5.43-2.51-5.95 6.24 1.62 4.89-4.22.38 6.44 5.52 3.34-6.01 2.36-1.46 6.28zM93.31 121.63l-4.09-4.99-6.44.55 3.48-5.44-2.51-5.94 6.25 1.62 4.88-4.22.38 6.44 5.53 3.34-6.01 2.35-1.47 6.29zM164.57 83.63l-4.1-4.99-6.43.55 3.48-5.44-2.51-5.95 6.25 1.63 4.88-4.23.38 6.45 5.53 3.33-6.01 2.36-1.47 6.29zM134.18 90.72l-4.1-4.99-6.43.55 3.47-5.44-2.51-5.94 6.25 1.62 4.88-4.22.39 6.44 5.52 3.34-6.01 2.36-1.46 6.28zM103.78 97.82l-4.1-4.99-6.43.55 3.48-5.44-2.51-5.95 6.25 1.63 4.88-4.23.38 6.45 5.52 3.33-6 2.36-1.47 6.29zM73.39 104.91l-4.1-4.98-6.44.54 3.48-5.43-2.51-5.95 6.25 1.63 4.88-4.23.38 6.45 5.53 3.33-6.01 2.36-1.46 6.28zM175.04 59.81l-4.1-4.98-6.43.54 3.48-5.43-2.51-5.95 6.24 1.63 4.88-4.23.39 6.45 5.52 3.33-6.01 2.36-1.46 6.28zM144.64 66.91l-4.1-4.99-6.42.55 3.47-5.44-2.51-5.94 6.25 1.62 4.88-4.22.38 6.44 5.53 3.34-6.01 2.35-1.47 6.29zM114.25 74l-4.1-4.98-6.43.55 3.47-5.44-2.5-5.95 6.24 1.63 4.88-4.23.39 6.45 5.52 3.33-6.01 2.36-1.46 6.28zM83.85 81.1l-4.1-4.99-6.43.55 3.48-5.44-2.51-5.94 6.25 1.62 4.88-4.22.38 6.44 5.53 3.34-6.01 2.35-1.47 6.29zM155.11 43.1l-4.1-4.99-6.43.55 3.48-5.44-2.51-5.95 6.25 1.63 4.88-4.22.38 6.44 5.53 3.33-6.01 2.36-1.47 6.29zM124.72 50.19l-4.1-4.98-6.43.55 3.47-5.44-2.51-5.95 6.25 1.62 4.88-4.22.39 6.45 5.52 3.33-6.01 2.36-1.46 6.28zM94.32 57.29l-4.1-4.99-6.43.55 3.48-5.44-2.51-5.94L91 43.09l4.89-4.22.38 6.44 5.52 3.34L95.78 51l-1.46 6.29zM63.92 64.39l-4.09-4.99-6.44.55 3.48-5.44-2.51-5.95 6.25 1.63 4.88-4.23.38 6.45 5.53 3.33-6.01 2.36-1.47 6.29z"/></g><path class="cls-7" d="m108.67 121.87-15.43-66.3c-.73-3.13 11.36-8.64 14.48-9.37L168.54 32l-.17-.77a5.85 5.85 0 0 0-7-4.36l-71 16.57a5.85 5.85 0 0 0-4.36 7l15.66 67.06a5.84 5.84 0 0 0 7 4.37Z"/><rect class="cls-14" x="95.07" y="95.73" width="94.67" height="20.57" rx="6.36" transform="rotate(-13.14 142.41 106)"/><path class="cls-7" d="M101.19 109.74 181 91.11a6.38 6.38 0 0 1 7.64 4.74l-1-4.42a6.39 6.39 0 0 0-7.64-4.75l-79.81 18.63a6.39 6.39 0 0 0-4.78 7.69l1 4.42a6.37 6.37 0 0 1 4.78-7.68Z"/><path class="cls-8" d="m145.52 114.78-4.79-20.52-12.12-51.91-1.73-7.43a1 1 0 0 0-2 .47l4.79 20.52 12.11 51.91 1.74 7.43a1 1 0 0 0 2-.47Z"/><path class="cls-8" d="M143.88 116.79a53.79 53.79 0 0 1 3.84 5.48 36.09 36.09 0 0 1 2.63 5 10.66 10.66 0 0 1 1.05 4.63 2.83 2.83 0 0 1-1.94 2.63 3.34 3.34 0 0 1-3.63-.48 7.2 7.2 0 0 1-1.52-4.06 26.7 26.7 0 0 1-.09-5.51 51.85 51.85 0 0 1 1.12-8c.25-1.08-1.41-1.6-1.66-.51a56.43 56.43 0 0 0-1.15 7.77 31.73 31.73 0 0 0 0 6.24 9.75 9.75 0 0 0 1.69 4.93c2.08 2.67 6.93 2.08 8.4-1 1.6-3.31-.69-7.66-2.28-10.54a54.17 54.17 0 0 0-5.23-7.77c-.67-.88-1.93.32-1.23 1.19Z"/><path class="cls-8" d="M143.41 116.59a52.23 52.23 0 0 1-1.56 6.51 35.41 35.41 0 0 1-2 5.29 10.48 10.48 0 0 1-2.77 3.86 2.84 2.84 0 0 1-3.25.3 3.34 3.34 0 0 1-2-3 7.26 7.26 0 0 1 2-3.84 27.11 27.11 0 0 1 4.06-3.73 52.46 52.46 0 0 1 6.75-4.5c1-.54.26-2.12-.72-1.58a58 58 0 0 0-6.57 4.3 33.46 33.46 0 0 0-4.65 4.17 9.75 9.75 0 0 0-2.55 4.54c-.62 3.33 3 6.57 6.3 5.64 3.54-1 5.27-5.61 6.37-8.72a54.27 54.27 0 0 0 2.33-9.06c.17-1.14-1.56-1.28-1.74-.18Z"/><path class="cls-8" d="M145.68 116.06a53.85 53.85 0 0 0 4.28 5.15 35 35 0 0 0 4.12 3.86 10.53 10.53 0 0 0 4.19 2.24 2.86 2.86 0 0 0 3-1.17 3.34 3.34 0 0 0 .49-3.63 7.16 7.16 0 0 0-3.46-2.51 26.78 26.78 0 0 0-5.29-1.55 52 52 0 0 0-8-1c-1.12-.06-1.18-1.79-.06-1.74a55.06 55.06 0 0 1 7.79 1 31.47 31.47 0 0 1 6 1.68 9.77 9.77 0 0 1 4.3 2.93c2 2.71.18 7.24-3.15 7.85-3.62.66-7.21-2.7-9.57-5a54.19 54.19 0 0 1-6.1-7.09c-.68-1.03.78-1.93 1.46-1.02Z"/><path class="cls-7" transform="rotate(166.86 139.45 93.34)" d="M97.16 90.62h84.57v5.45H97.16z"/><path class="cls-10" d="m276.08 86.69-9.7-5.69-15.54-9.12-.7-.42.65 1.13 9 7.21 14.61 11.72 3.35 2.68c.88.71-.29 2-1.17 1.31l-9.11-7.31L253 76.62l1.36 2.54 17.31 19.34 2.42 2.7c.75.83-.73 1.8-1.47 1l-15.19-17q3.25 6.61 6.13 13.4 1.29 3.06 2.5 6.15c.4 1-1.28 1.62-1.68.59q-4.07-10.34-9-20.31 1.47 9.47 3 18.93l.55 3.51c.19 1.17-1.62 1.22-1.79.14l-3.81-24.4-.52-3.21-1.69-3.16.26 7.38L252 102l.15 4.11c0 1.1-1.74 1.24-1.78.14l-.4-11.13-.63-17.77c0-1.31-.1-2.62-.14-3.94l-.92-1.57-.76 7.42-1.64 15.93-.38 3.68c-.13 1.23-1.87.77-1.76-.32q.52-5 1-10l1.64-15.93.34-3.3c-.53-.88-1.06-1.77-1.6-2.64-.51 2.56-1 5.13-1.52 7.7l-3.1 15.73-.72 3.64c-.21 1.08-2 .76-1.75-.32l1.97-10 3.11-15.73.65-3.29c-.4-.62-.78-1.25-1.19-1.87l-.67-1-2.07 7.83q-2.09 7.83-4.15 15.66l-1 3.62c-.28 1.07-2 .76-1.76-.32l2.6-9.81 4.15-15.66.88-3.3-2.26-3.27-2.45 8-4.75 15.62-1.11 3.63c-.32 1-2.07.74-1.75-.33l3-9.84 4.75-15.61c.34-1.11.68-2.21 1-3.31q-1.37-1.91-2.79-3.78l-2.35 8-4.58 15.54-1.06 3.59c-.36 1.19-2.06.75-1.75-.32l2.87-9.74Q229.7 60 232 52.18c.32-1.08.63-2.16 1-3.24-.7-.91-1.41-1.81-2.13-2.71l-6.75 21.69-1 3.25c-.32 1-2.08.74-1.75-.32q3.65-11.68 7.28-23.38l.9-2.89c-1.09-1.32-2.2-2.64-3.33-3.94L220 62.18l-.93 3.3c-.31 1.06-2.06.75-1.76-.32L223.9 42l.83-2.93c-.92-1-1.86-2.06-2.81-3.08l-5.4 20.81-.83 3.19c-.28 1.06-2 .76-1.75-.32l5.82-22.41.72-2.78c-.44-.46-.87-.93-1.32-1.38l-1.31-1.31-4.15 18.93-.63 2.88c-.24 1.08-2 .77-1.76-.32l4.51-20.54.54-2.44c-.8-.78-1.61-1.55-2.42-2.31l-3.79 17.89-.59 2.77c-.23 1.08-2 .77-1.75-.32l4.11-19.43.5-2.31c-1-.87-1.92-1.74-2.9-2.58l-3.24 16.11-.51 2.54c-.22 1.08-2 .77-1.75-.32l3.54-17.61.41-2.06c-.81-.68-1.63-1.37-2.45-2l-3.24 13.24-.52 2.11c-.26 1.07-2 .76-1.76-.32l3.59-14.64.4-1.61q-1.5-1.2-3-2.34l-1.42 11.46-.23 1.85c-.14 1.1-1.89.77-1.76-.32l1.6-12.92.16-1.29-1.91-1.39-1.69-1.17-.88 10.38c-.09 1.1-1.84.77-1.75-.32q.46-5.6.94-11.19a115.12 115.12 0 0 0-12.75-7.38 75 75 0 0 0-5-2.27c-.74-.31-1.54-.53-2.27-.87h-.09c-1.09-.36-.3-1.9.78-1.55a51.17 51.17 0 0 1 6 2.52 115.69 115.69 0 0 1 14.45 8.25l16.2-3.16 2.34-.46c1.12-.22 1.24 1.49.13 1.71l-16.46 3.21h-.22c1.13.78 2.25 1.58 3.36 2.39l17.27-2.29 2.54-.33c1.14-.15 1.27 1.56.13 1.71L202.86 16l-.38.05c.93.71 1.86 1.43 2.79 2.17l21-2.15 3.09-.31a.85.85 0 1 1 .13 1.7l-21.35 2.14-1 .1c.71.58 1.41 1.17 2.1 1.76l23.2-1.06 3.35-.15a.86.86 0 1 1 .13 1.71L212.36 23l-1.21.05 2.59 2.32 9.92-.17 16.49-.2 3.83-.07c1.15 0 1.29 1.69.13 1.71l-10.33.18-16.5.29h-1.73l2.15 2.06 10.78.14 18 .24 4.12.06c1.14 0 1.29 1.72.13 1.7l-11.22-.15-18-.24h-2.07l2.42 2.47 11.26.35 18.67.57 4.27.13c1.13 0 1.28 1.74.13 1.71l-11.72-.36-18.67-.59-2.29-.07c.89.95 1.77 1.92 2.64 2.89l11.68 1 19.07 1.7 4.41.39c1.15.11.8 1.79-.34 1.69L249 41.78l-19-1.7-2.17-.2q1.59 1.83 3.13 3.71L241.7 45l17.66 2.35 4 .54c1.14.15.79 1.84-.34 1.69L252 48.13l-17.65-2.36-1.83-.24c.65.8 1.29 1.62 1.92 2.44L245 50.05l17.42 3.41 4 .78a.86.86 0 1 1-.34 1.68l-10.94-2.14-17.42-3.41L236 50q1.32 1.74 2.59 3.51l10.51 2.59 17.38 4.27 4 1c1.1.27.77 2-.35 1.68l-10.89-2.68-17.38-4.27-1.8-.44 1.33 1.89c.25.36.48.74.73 1.11l10.13 3.5 16.44 5.69 3.78 1.31c1.08.37.29 1.92-.79 1.54l-10.28-3.54-16.4-5.69-1.28-.47 1.62 2.51 9.66 4.36 15.78 7 3.63 1.62c1 .47.26 2-.79 1.55l-9.9-4.43-15.78-7-1-.44 1.36 2.23 9.48 5.6 15.54 9.12 3.55 2.08c.96.52.19 2.07-.79 1.49Z"/><path class="cls-3" d="M506.39 47a4.46 4.46 0 0 1 3.19-5.43l46.22-12a4.47 4.47 0 0 1 5.43 3.2l8.71 33.62a4.46 4.46 0 0 1-3.19 5.43l-46.22 12a4.47 4.47 0 0 1-5.43-3.2Z"/><g clip-path="url(#clip-path-5)"><path class="cls-6" transform="rotate(120.47 544.33 96.96)" d="M464.08 93.11h160.51v7.72H464.08z"/><path class="cls-6" transform="rotate(120.47 539.36 77.8)" d="M459.11 73.96h160.51v7.72H459.11z"/><path class="cls-6" transform="rotate(120.47 534.4 58.66)" d="M454.15 54.81h160.51v7.72H454.15z"/><path class="cls-6" transform="rotate(120.47 529.43 39.5)" d="M449.18 35.66h160.51v7.72H449.18z"/><path class="cls-6" transform="rotate(120.47 524.47 20.36)" d="M444.22 16.51h160.51v7.72H444.22z"/><path class="cls-6" transform="rotate(120.47 519.5 1.2)" d="M439.26-2.64h160.51v7.72H439.26z"/></g><path class="cls-7" d="M520.53 83.84 512 50.8a4.47 4.47 0 0 1 3.2-5.44l46.18-12-.15-.58a4.47 4.47 0 0 0-5.43-3.2l-46.22 12a4.46 4.46 0 0 0-3.19 5.42l8.71 33.62a4.47 4.47 0 0 0 5.43 3.22Z"/><path class="cls-4" d="M510.24 77.28a4.87 4.87 0 0 1 3.48-5.92l52.91-13.72a4.87 4.87 0 0 1 5.92 3.48l1.51 5.81a4.87 4.87 0 0 1-3.48 5.92l-52.91 13.72a4.87 4.87 0 0 1-5.92-3.49Z"/><path class="cls-7" d="M514.6 74.71 567.51 61a4.88 4.88 0 0 1 5.92 3.48l-.88-3.36a4.87 4.87 0 0 0-5.92-3.48l-52.91 13.72a4.87 4.87 0 0 0-3.48 5.92l.87 3.35a4.87 4.87 0 0 1 3.49-5.92Z"/><path class="cls-14" d="m544.89 79.51-4-15.58-5.93-22.89c-.49-1.88-1-3.76-1.46-5.64a.8.8 0 0 0-1.54.4l3.54 13.67 6.43 24.79c.49 1.89 1 3.77 1.46 5.65a.8.8 0 0 0 1.54-.4Z"/><path class="cls-14" d="M543.68 81.07a40.79 40.79 0 0 1 3 4.12 27.3 27.3 0 0 1 2.14 3.81 8.18 8.18 0 0 1 .88 3.52 2.16 2.16 0 0 1-1.43 2 2.54 2.54 0 0 1-2.78-.3 5.5 5.5 0 0 1-1.24-3.07 20.45 20.45 0 0 1-.17-4.21 40 40 0 0 1 .71-6.16c.16-.83-1.11-1.2-1.28-.36a42.59 42.59 0 0 0-.73 6 24.53 24.53 0 0 0 .13 4.77 7.44 7.44 0 0 0 1.38 3.73 4 4 0 0 0 6.41-.92c1.15-2.56-.67-5.84-1.94-8a41 41 0 0 0-4.14-5.83c-.55-.69-1.49.25-.94.9Z"/><path class="cls-14" d="M543.31 80.93a40.78 40.78 0 0 1-1.06 5 27.74 27.74 0 0 1-1.42 4.07 8.17 8.17 0 0 1-2 3 2.18 2.18 0 0 1-2.48.29 2.56 2.56 0 0 1-1.66-2.29 5.44 5.44 0 0 1 1.47-3 20.41 20.41 0 0 1 3-2.92 40.21 40.21 0 0 1 5.07-3.56c.74-.43.16-1.63-.57-1.2a42.07 42.07 0 0 0-4.94 3.41 24.43 24.43 0 0 0-3.47 3.27 7.42 7.42 0 0 0-1.87 3.51 4 4 0 0 0 4.91 4.19c2.69-.83 3.93-4.38 4.7-6.77a41.48 41.48 0 0 0 1.62-7c.15-.76-1.18-.84-1.3 0Z"/><path class="cls-14" d="M545 80.48a41.1 41.1 0 0 0 3.36 3.86 28.22 28.22 0 0 0 3.22 2.87 8.21 8.21 0 0 0 3.24 1.63 2.16 2.16 0 0 0 2.31-1 2.56 2.56 0 0 0 .31-2.78 5.53 5.53 0 0 0-2.73-1.88 21 21 0 0 0-4.07-1.08 39.86 39.86 0 0 0-6.16-.65c-.85 0-.93-1.34-.07-1.32a41.05 41.05 0 0 1 6 .58 24 24 0 0 1 4.59 1.22 7.45 7.45 0 0 1 3.34 2.16 4 4 0 0 1-2.26 6c-2.76.57-5.56-1.92-7.4-3.64a41.61 41.61 0 0 1-4.8-5.3c-.47-.63.65-1.35 1.12-.67Z"/><path class="cls-14" d="M543.18 80.2a40.78 40.78 0 0 1-4.06 3.11 26.72 26.72 0 0 1-3.73 2.18 8 8 0 0 1-3.5 1 2.16 2.16 0 0 1-2.07-1.39 2.54 2.54 0 0 1 .25-2.78 5.45 5.45 0 0 1 3-1.3 20.46 20.46 0 0 1 4.21-.26 41.17 41.17 0 0 1 6.17.59c.83.15 1.17-1.13.33-1.28a42.55 42.55 0 0 0-6-.62 24.57 24.57 0 0 0-4.77.23 7.44 7.44 0 0 0-3.7 1.46 4 4 0 0 0 1 6.38c2.58 1.1 5.83-.79 8-2.1a41.24 41.24 0 0 0 5.75-4.25c.71-.61-.24-1.53-.88-.97Z"/><path class="cls-14" d="M544.57 79.84a43.17 43.17 0 0 0 5.06.75 27 27 0 0 0 4.31.09 8.14 8.14 0 0 0 3.53-.87 2.15 2.15 0 0 0 1.13-2.22 2.53 2.53 0 0 0-1.6-2.31 5.52 5.52 0 0 0-3.3.34 21.39 21.39 0 0 0-3.8 1.82 39.75 39.75 0 0 0-5.1 3.51c-.66.54-1.58-.42-.92-1a43.62 43.62 0 0 1 4.91-3.43 24.7 24.7 0 0 1 4.28-2.12 7.4 7.4 0 0 1 3.94-.52 4 4 0 0 1 2.26 6.12c-1.73 2.22-5.48 2.14-8 2a41.2 41.2 0 0 1-7.09-.92c-.83-.15-.44-1.42.39-1.24Z"/><path class="cls-7" transform="rotate(166 539.19 62.11)" d="M511.33 60.4h56.66v4.16h-56.66z"/></svg>